<?xml version="1.0" encoding="UTF-8" standalone="no"?>
<!DOCTYPE svg PUBLIC "-//W3C//DTD SVG 1.1//EN" "http://www.w3.org/Graphics/SVG/1.1/DTD/svg11.dtd">
<svg width="100%" height="100%" viewBox="0 0 383 383" version="1.1" xmlns="http://www.w3.org/2000/svg" xmlns:xlink="http://www.w3.org/1999/xlink" xml:space="preserve" style="fill-rule:evenodd;clip-rule:evenodd;stroke-linejoin:round;stroke-miterlimit:1.41421;">
    <g transform="matrix(1,0,0,1,-96,-96)">
        <path d="M273.83,211.03L254.57,230.29L273.83,249.56L312.36,211.03L273.83,172.51L254.57,191.77L273.83,211.03Z" style="fill:rgb(235,92,55);fill-rule:nonzero;"/>
    </g>
    <g transform="matrix(1,0,0,1,-96,-96)">
        <path d="M150,317.26L150,307.44L167.12,307.44L167.12,317.44C168.152,314.6 169.87,312.057 172.12,310.04C174.217,307.806 177.118,306.496 180.18,306.4C182.552,306.393 184.922,306.56 187.27,306.9L186.36,319.9L178.15,318.38C173.483,318.72 170.073,320.747 167.92,324.46L167.92,343.9L178.15,343.9L178.15,353.63L150,353.63L150,344.81L156.69,342.99L156.69,317.26L150,317.26Z" style="fill:rgb(235,92,55);fill-rule:nonzero;"/>
    </g>
    <g transform="matrix(1,0,0,1,-96,-96)">
        <path d="M214.44,344.71C219.34,344.683 224.14,343.317 228.32,340.76L231.96,349.68C226.691,353.014 220.575,354.771 214.34,354.74C206.64,354.74 200.95,352.563 197.27,348.21C193.59,343.857 191.75,337.963 191.75,330.53C191.75,323.583 193.59,317.827 197.27,313.26C200.95,308.693 206.193,306.417 213,306.43C219.547,306.43 224.427,308.37 227.64,312.25C230.883,316.231 232.591,321.247 232.45,326.38C232.514,329.037 232.241,331.691 231.64,334.28L203.71,334.28C203.659,337.118 204.689,339.872 206.59,341.98C208.377,343.8 210.993,344.71 214.44,344.71ZM203.81,325.77L221.43,325.77C221.504,325.3 221.537,324.825 221.53,324.35C221.67,322.005 220.782,319.711 219.1,318.07C217.436,316.574 215.256,315.778 213.02,315.85C207.353,315.85 204.283,319.157 203.81,325.77Z" style="fill:rgb(235,92,55);fill-rule:nonzero;"/>
    </g>
    <g transform="matrix(1,0,0,1,-96,-96)">
        <path d="M252.37,316.45C251.214,317.546 249.662,318.131 248.07,318.07C246.461,318.126 244.892,317.543 243.71,316.45C242.569,315.379 241.945,313.864 242,312.3C241.954,310.721 242.579,309.193 243.72,308.1C244.888,306.978 246.461,306.375 248.08,306.43C249.682,306.367 251.24,306.972 252.38,308.1C253.495,309.207 254.101,310.73 254.05,312.3C254.104,313.858 253.493,315.368 252.37,316.45L252.37,316.45ZM248.07,354.33C246.451,354.385 244.878,353.782 243.71,352.66C242.569,351.567 241.944,350.039 241.99,348.46C241.937,346.894 242.565,345.38 243.71,344.31C244.892,343.217 246.461,342.634 248.07,342.69C249.662,342.629 251.214,343.214 252.37,344.31C253.489,345.394 254.096,346.903 254.04,348.46C254.086,350.039 253.461,351.567 252.32,352.66C251.189,353.769 249.654,354.372 248.07,354.33Z" style="fill:rgb(235,92,55);fill-rule:nonzero;"/>
    </g>
    <g transform="matrix(1,0,0,1,-96,-96)">
        <path d="M285.85,347.85C291.175,347.755 296.341,346.008 300.63,342.85L303.27,349.13C298.143,352.752 292.018,354.699 285.74,354.7C278.447,354.7 273.113,352.54 269.74,348.22C266.367,343.9 264.68,337.957 264.68,330.39C264.68,323.297 266.4,317.523 269.84,313.07C273.28,308.617 278.31,306.39 284.93,306.39C291.01,306.39 295.603,308.28 298.71,312.06C301.852,315.948 303.506,320.833 303.37,325.83C303.349,328.205 303.145,330.576 302.76,332.92L272.76,332.92C272.973,342.88 277.337,347.857 285.85,347.85ZM272.85,326.85L295.64,326.85C295.757,326.189 295.824,325.521 295.84,324.85C295.999,321.727 294.949,318.66 292.91,316.29C290.832,314.12 287.911,312.955 284.91,313.1C277.503,313.107 273.493,317.703 272.88,326.89L272.85,326.85Z" style="fill:rgb(235,92,55);fill-rule:nonzero;"/>
    </g>
    <g transform="matrix(1,0,0,1,-96,-96)">
        <path d="M345.5,312L345.5,290L336,290L336,283.11L353.1,283.11L353.1,346.82L360.1,346.82L360.1,353.61L353.5,353.61C348.98,353.61 346.617,351.48 346.41,347.22C342.557,352.22 337.697,354.72 331.83,354.72C325.35,354.72 320.503,352.61 317.29,348.39C314.077,344.17 312.473,338.17 312.48,330.39C312.48,322.83 314.117,316.94 317.39,312.72C320.663,308.5 325.577,306.39 332.13,306.39C338.043,306.417 342.5,308.287 345.5,312ZM320.5,330.43C320.5,341.763 324.89,347.43 333.67,347.43C338.374,347.472 342.81,345.196 345.52,341.35L345.52,319.29C342.893,315.577 338.977,313.72 333.77,313.72C324.903,313.72 320.473,319.29 320.48,330.43L320.5,330.43Z" style="fill:rgb(235,92,55);fill-rule:nonzero;"/>
    </g>
    <g transform="matrix(1,0,0,1,-96,-96)">
        <path d="M409.82,307.44L409.82,346.74L416.9,346.74L416.9,353.63L403.43,353.63L403.43,346.23C401.553,348.708 399.166,350.754 396.43,352.23C393.346,353.932 389.872,354.804 386.35,354.76C381.083,354.76 377.317,353.307 375.05,350.4C372.783,347.493 371.653,343.003 371.66,336.93L371.66,314.23L364.17,314.23L364.17,307.44L379.26,307.44L379.26,336.31C379.26,340.09 379.883,342.873 381.13,344.66C382.38,346.45 384.89,347.35 388.68,347.35C391.496,347.351 394.267,346.635 396.73,345.27C398.992,344.139 400.901,342.409 402.25,340.27L402.25,314.27L392.8,314.27L392.8,307.48L409.82,307.44Z" style="fill:rgb(235,92,55);fill-rule:nonzero;"/>
    </g>
    <g transform="matrix(1,0,0,1,-96,-96)">
        <path d="M150,378.83L150,377.09L153.56,377.09L153.56,379.6C153.851,378.862 154.314,378.204 154.91,377.68C155.447,377.157 156.161,376.853 156.91,376.83C157.547,376.827 158.183,376.881 158.81,376.99L158.57,379.35L156.65,378.86C156.027,378.927 155.435,379.166 154.94,379.55C154.388,379.96 153.945,380.499 153.65,381.12L153.65,387.07L156.44,387.07L156.44,388.79L150,388.79L150,387.25L151.74,386.89L151.74,378.83L150,378.83Z" style="fill:rgb(235,92,55);fill-rule:nonzero;"/>
    </g>
    <g transform="matrix(1,0,0,1,-96,-96)">
        <path d="M165.63,387.33C166.98,387.31 168.292,386.87 169.38,386.07L170.05,387.67C168.751,388.587 167.2,389.08 165.61,389.08C164.072,389.211 162.561,388.597 161.55,387.43C160.631,386.112 160.18,384.524 160.27,382.92C160.196,381.351 160.658,379.802 161.58,378.53C162.5,377.377 163.927,376.742 165.4,376.83C166.724,376.737 168.017,377.271 168.89,378.27C169.691,379.254 170.113,380.492 170.08,381.76C170.072,382.363 170.018,382.965 169.92,383.56L162.32,383.56C162.37,386.07 163.48,387.33 165.63,387.33ZM162.35,382L168.12,382C168.156,381.829 168.176,381.655 168.18,381.48C168.219,380.687 167.95,379.909 167.43,379.31C166.907,378.772 166.179,378.481 165.43,378.51C163.53,378.523 162.503,379.687 162.35,382Z" style="fill:rgb(235,92,55);fill-rule:nonzero;"/>
    </g>
    <g transform="matrix(1,0,0,1,-96,-96)">
        <path d="M177.73,387.33C179.077,387.308 180.385,386.868 181.47,386.07L182.14,387.67C180.841,388.587 179.29,389.08 177.7,389.08C176.162,389.211 174.651,388.597 173.64,387.43C172.721,386.112 172.27,384.524 172.36,382.92C172.292,381.351 172.753,379.805 173.67,378.53C174.59,377.377 176.017,376.742 177.49,376.83C178.816,376.739 180.112,377.272 180.99,378.27C181.783,379.257 182.201,380.494 182.17,381.76C182.167,382.363 182.114,382.966 182.01,383.56L174.41,383.56C174.47,386.07 175.57,387.33 177.73,387.33ZM174.44,382L180.22,382C180.248,381.828 180.265,381.654 180.27,381.48C180.309,380.687 180.04,379.909 179.52,379.31C178.998,378.771 178.27,378.48 177.52,378.51C175.62,378.523 174.593,379.687 174.44,382Z" style="fill:rgb(235,92,55);fill-rule:nonzero;"/>
    </g>
    <g transform="matrix(1,0,0,1,-96,-96)">
        <path d="M184.35,388.79L184.35,387.07L186,387.07L186,378.83L184.33,378.83L184.33,377.09L187.77,377.09L187.77,378.4C188.85,377.311 190.349,376.738 191.88,376.83C192.992,376.726 194.094,377.126 194.88,377.92C195.55,378.921 195.864,380.119 195.77,381.32L195.77,387.07L197.44,387.07L197.44,388.79L191.87,388.79L191.87,387.07L193.87,387.07L193.87,381.48C193.925,380.739 193.75,379.998 193.37,379.36C192.843,378.839 192.105,378.588 191.37,378.68C190.713,378.681 190.062,378.803 189.45,379.04C188.904,379.226 188.398,379.514 187.96,379.89L187.96,387.07L189.91,387.07L189.91,388.79L184.35,388.79Z" style="fill:rgb(235,92,55);fill-rule:nonzero;"/>
    </g>
    <g transform="matrix(1,0,0,1,-96,-96)">
        <path d="M210.38,377.83L207.91,378.65C208.564,379.392 208.898,380.363 208.84,381.35C208.903,382.512 208.435,383.642 207.57,384.42C206.569,385.193 205.323,385.581 204.06,385.51C203.383,385.542 202.706,385.454 202.06,385.25L201.7,387.33L205.55,387.33C206.59,387.259 207.624,387.545 208.48,388.14C209.159,388.713 209.529,389.573 209.48,390.46C209.5,391.658 208.912,392.788 207.92,393.46C206.686,394.271 205.225,394.667 203.75,394.59C200.38,394.59 198.69,393.52 198.69,391.4C198.684,390.784 198.909,390.189 199.32,389.73C199.689,389.289 200.174,388.96 200.72,388.78C200.166,388.541 199.826,387.97 199.88,387.37C199.937,386.428 200.405,385.557 201.16,384.99C199.8,384.279 198.991,382.819 199.11,381.29C199.047,380.072 199.51,378.884 200.38,378.03C201.399,377.159 202.722,376.724 204.06,376.82C205.12,376.757 206.172,377.037 207.06,377.62C207.773,376.594 208.951,375.986 210.2,376L210.38,377.83ZM201.91,389.1C201.198,389.472 200.736,390.197 200.7,391C200.7,392.33 201.7,393 203.83,393C204.739,393.041 205.643,392.841 206.45,392.42C207.087,392.094 207.478,391.425 207.45,390.71C207.45,389.65 206.72,389.12 205.27,389.12L201.91,389.1ZM204,384C205.92,384 206.87,383.11 206.87,381.33C206.909,380.599 206.662,379.881 206.18,379.33C205.589,378.79 204.798,378.522 204,378.59C202,378.59 201.05,379.49 201.05,381.31C201.05,383.13 202.07,384 204,384Z" style="fill:rgb(235,92,55);fill-rule:nonzero;"/>
    </g>
    <g transform="matrix(1,0,0,1,-96,-96)">
        <path d="M211.41,388.79L211.41,387.07L214,387.07L214,378.83L211.44,378.83L211.44,377.09L215.93,377.09L215.93,387.09L218.37,387.09L218.37,388.81L211.41,388.79ZM214.8,374.19C213.8,374.19 213.38,373.73 213.38,372.83C213.373,372.775 213.369,372.72 213.369,372.665C213.369,371.985 213.929,371.425 214.609,371.425C214.673,371.425 214.737,371.43 214.8,371.44C215.166,371.424 215.524,371.55 215.8,371.79C216.074,372.048 216.22,372.414 216.2,372.79C216.226,373.167 216.079,373.535 215.8,373.79C215.532,374.048 215.173,374.192 214.8,374.19L214.8,374.19Z" style="fill:rgb(235,92,55);fill-rule:nonzero;"/>
    </g>
    <g transform="matrix(1,0,0,1,-96,-96)">
        <path d="M219.77,388.79L219.77,387.07L221.47,387.07L221.47,378.83L219.8,378.83L219.8,377.09L223.24,377.09L223.24,378.4C224.319,377.31 225.819,376.737 227.35,376.83C228.462,376.723 229.566,377.124 230.35,377.92C231.028,378.918 231.346,380.118 231.25,381.32L231.25,387.07L232.92,387.07L232.92,388.79L227.35,388.79L227.35,387.07L229.35,387.07L229.35,381.48C229.41,380.738 229.235,379.996 228.85,379.36C228.325,378.835 227.586,378.584 226.85,378.68C226.19,378.682 225.536,378.804 224.92,379.04C224.375,379.228 223.87,379.517 223.43,379.89L223.43,387.07L225.43,387.07L225.43,388.79L219.77,388.79Z" style="fill:rgb(235,92,55);fill-rule:nonzero;"/>
    </g>
    <g transform="matrix(1,0,0,1,-96,-96)">
        <path d="M240,387.33C241.35,387.309 242.661,386.868 243.75,386.07L244.42,387.67C243.121,388.587 241.57,389.08 239.98,389.08C238.442,389.211 236.931,388.597 235.92,387.43C234.996,386.115 234.545,384.524 234.64,382.92C234.566,381.351 235.028,379.802 235.95,378.53C236.869,377.375 238.297,376.74 239.77,376.83C241.094,376.737 242.387,377.271 243.26,378.27C244.058,379.255 244.477,380.493 244.44,381.76C244.436,382.363 244.386,382.965 244.29,383.56L236.69,383.56C236.71,386.073 237.813,387.33 240,387.33ZM236.67,382L242.44,382C242.473,381.829 242.49,381.655 242.49,381.48C242.528,380.689 242.263,379.913 241.75,379.31C241.227,378.772 240.499,378.481 239.75,378.51C237.85,378.523 236.823,379.687 236.67,382Z" style="fill:rgb(235,92,55);fill-rule:nonzero;"/>
    </g>
    <g transform="matrix(1,0,0,1,-96,-96)">
        <path d="M252,387.33C253.35,387.31 254.662,386.87 255.75,386.07L256.42,387.67C255.121,388.587 253.57,389.08 251.98,389.08C250.442,389.211 248.931,388.597 247.92,387.43C247.001,386.112 246.55,384.524 246.64,382.92C246.566,381.351 247.028,379.802 247.95,378.53C248.87,377.377 250.297,376.742 251.77,376.83C253.094,376.737 254.387,377.271 255.26,378.27C256.058,379.255 256.477,380.493 256.44,381.76C256.436,382.363 256.386,382.965 256.29,383.56L248.69,383.56C248.78,386.07 249.89,387.33 252,387.33ZM248.76,382L254.53,382C254.563,381.829 254.58,381.655 254.58,381.48C254.623,380.689 254.357,379.91 253.84,379.31C253.317,378.772 252.589,378.481 251.84,378.51C249.947,378.523 248.92,379.687 248.76,382Z" style="fill:rgb(235,92,55);fill-rule:nonzero;"/>
    </g>
    <g transform="matrix(1,0,0,1,-96,-96)">
        <path d="M258.67,378.83L258.67,377.09L262.24,377.09L262.24,379.6C262.525,378.861 262.985,378.202 263.58,377.68C264.117,377.157 264.831,376.853 265.58,376.83C266.217,376.827 266.853,376.881 267.48,376.99L267.25,379.35L265.32,378.86C264.697,378.927 264.105,379.166 263.61,379.55C263.061,379.962 262.618,380.501 262.32,381.12L262.32,387.07L265.12,387.07L265.12,388.79L258.65,388.79L258.65,387.25L260.39,386.89L260.39,378.83L258.67,378.83Z" style="fill:rgb(235,92,55);fill-rule:nonzero;"/>
    </g>
    <g transform="matrix(1,0,0,1,-96,-96)">
        <path d="M268.76,388.79L268.76,387.07L271.32,387.07L271.32,378.83L268.76,378.83L268.76,377.09L273.25,377.09L273.25,387.09L275.69,387.09L275.69,388.81L268.76,388.79ZM272.14,374.19C272.101,374.193 272.062,374.195 272.023,374.195C271.266,374.195 270.643,373.572 270.643,372.815C270.643,372.058 271.266,371.435 272.023,371.435C272.062,371.435 272.101,371.437 272.14,371.44C272.506,371.425 272.863,371.551 273.14,371.79C273.414,372.048 273.56,372.414 273.54,372.79C273.566,373.167 273.419,373.535 273.14,373.79C272.871,374.048 272.512,374.191 272.14,374.19Z" style="fill:rgb(235,92,55);fill-rule:nonzero;"/>
    </g>
    <g transform="matrix(1,0,0,1,-96,-96)">
        <path d="M277.12,388.79L277.12,387.07L278.82,387.07L278.82,378.83L277.15,378.83L277.15,377.09L280.59,377.09L280.59,378.4C281.669,377.31 283.169,376.737 284.7,376.83C285.812,376.723 286.916,377.124 287.7,377.92C288.378,378.918 288.696,380.118 288.6,381.32L288.6,387.07L290.27,387.07L290.27,388.79L284.7,388.79L284.7,387.07L286.7,387.07L286.7,381.48C286.76,380.738 286.585,379.996 286.2,379.36C285.675,378.835 284.936,378.584 284.2,378.68C283.54,378.682 282.886,378.804 282.27,379.04C281.725,379.228 281.22,379.517 280.78,379.89L280.78,387.07L282.73,387.07L282.73,388.79L277.12,388.79Z" style="fill:rgb(235,92,55);fill-rule:nonzero;"/>
    </g>
    <g transform="matrix(1,0,0,1,-96,-96)">
        <path d="M303.16,377.83L300.69,378.65C301.344,379.392 301.678,380.363 301.62,381.35C301.683,382.514 301.211,383.646 300.34,384.42C299.344,385.194 298.1,385.582 296.84,385.51C296.163,385.539 295.487,385.451 294.84,385.25L294.48,387.33L298.33,387.33C299.37,387.258 300.405,387.544 301.26,388.14C301.943,388.71 302.314,389.572 302.26,390.46C302.279,391.655 301.696,392.784 300.71,393.46C299.474,394.267 298.014,394.662 296.54,394.59C293.17,394.59 291.48,393.52 291.48,391.4C291.474,390.784 291.699,390.189 292.11,389.73C292.479,389.289 292.964,388.96 293.51,388.78C292.953,388.544 292.608,387.973 292.66,387.37C292.736,386.422 293.226,385.554 294,385C292.637,384.292 291.823,382.832 291.94,381.3C291.877,380.082 292.34,378.894 293.21,378.04C294.234,377.17 295.56,376.735 296.9,376.83C297.96,376.766 299.013,377.047 299.9,377.63C300.605,376.614 301.764,376.005 303,376L303.16,377.83ZM294.68,389.1C293.979,389.473 293.523,390.187 293.48,390.98C293.48,392.31 294.48,392.98 296.61,392.98C297.519,393.021 298.423,392.821 299.23,392.4C299.867,392.074 300.258,391.405 300.23,390.69C300.23,389.63 299.5,389.1 298.05,389.1L294.68,389.1ZM296.81,383.97C298.73,383.97 299.69,383.08 299.69,381.3C299.729,380.569 299.482,379.851 299,379.3C298.404,378.761 297.611,378.493 296.81,378.56C294.81,378.56 293.86,379.46 293.86,381.28C293.86,383.1 294.85,384 296.81,384L296.81,383.97Z" style="fill:rgb(235,92,55);fill-rule:nonzero;"/>
    </g>
    <g transform="matrix(1,0,0,1,-96,-96)">
        <path d="M314.94,387.33C316.29,387.307 317.6,386.867 318.69,386.07L319.35,387.67C318.051,388.587 316.5,389.08 314.91,389.08C313.375,389.213 311.866,388.598 310.86,387.43C309.933,386.116 309.478,384.526 309.57,382.92C309.502,381.351 309.963,379.805 310.88,378.53C311.805,377.377 313.234,376.742 314.71,376.83C316.033,376.739 317.326,377.272 318.2,378.27C318.998,379.255 319.417,380.493 319.38,381.76C319.376,382.363 319.326,382.965 319.23,383.56L311.63,383.56C311.683,386.073 312.787,387.33 314.94,387.33ZM311.65,382L317.43,382C317.458,381.828 317.475,381.654 317.48,381.48C317.518,380.689 317.253,379.913 316.74,379.31C316.216,378.775 315.489,378.484 314.74,378.51C312.84,378.523 311.81,379.687 311.65,382Z" style="fill:rgb(235,92,55);fill-rule:nonzero;"/>
    </g>
    <g transform="matrix(1,0,0,1,-96,-96)">
        <path d="M330.06,378.24L330.06,372.67L327.65,372.67L327.65,370.93L332,370.93L332,387.07L333.78,387.07L333.78,388.79L332.11,388.79C330.96,388.79 330.36,388.26 330.31,387.18C329.461,388.377 328.078,389.087 326.61,389.08C325.195,389.179 323.818,388.577 322.93,387.47C322.04,386.126 321.612,384.529 321.71,382.92C321.616,381.329 322.056,379.752 322.96,378.44C323.869,377.332 325.261,376.731 326.69,376.83C327.972,376.743 329.222,377.266 330.06,378.24L330.06,378.24ZM323.72,382.92C323.72,385.793 324.833,387.23 327.06,387.23C328.25,387.237 329.372,386.661 330.06,385.69L330.06,380.09C329.371,379.135 328.235,378.602 327.06,378.68C324.833,378.68 323.72,380.093 323.72,382.92Z" style="fill:rgb(235,92,55);fill-rule:nonzero;"/>
    </g>
    <g transform="matrix(1,0,0,1,-96,-96)">
        <path d="M346.36,377.09L346.36,387.09L348.16,387.09L348.16,388.83L344.74,388.83L344.74,386.96C344.265,387.588 343.657,388.104 342.96,388.47C342.182,388.906 341.302,389.131 340.41,389.12C339.332,389.226 338.266,388.813 337.54,388.01C336.89,386.997 336.588,385.8 336.68,384.6L336.68,378.85L334.78,378.85L334.78,377.13L338.61,377.13L338.61,384.44C338.557,385.177 338.721,385.914 339.08,386.56C339.571,387.085 340.288,387.339 341,387.24C341.699,387.234 342.386,387.056 343,386.72C343.571,386.428 344.054,385.989 344.4,385.45L344.4,378.85L342.01,378.85L342.01,377.13L346.36,377.09Z" style="fill:rgb(235,92,55);fill-rule:nonzero;"/>
    </g>
    <g transform="matrix(1,0,0,1,-96,-96)">
        <path d="M355.29,387.25C356.626,387.258 357.937,386.887 359.07,386.18L359.63,387.84C358.257,388.656 356.687,389.084 355.09,389.08C353.574,389.19 352.097,388.551 351.14,387.37C350.215,386.076 349.754,384.508 349.83,382.92C349.764,381.349 350.249,379.803 351.2,378.55C352.18,377.37 353.669,376.729 355.2,376.83C356.678,376.83 358.136,377.173 359.46,377.83L359.03,381.83L357.46,381.83L357.46,378.95C356.745,378.694 355.989,378.572 355.23,378.59C354.262,378.52 353.325,378.96 352.76,379.75C352.19,380.672 351.914,381.747 351.97,382.83C351.99,385.777 353.097,387.25 355.29,387.25Z" style="fill:rgb(235,92,55);fill-rule:nonzero;"/>
    </g>
    <g transform="matrix(1,0,0,1,-96,-96)">
        <path d="M364.2,379.07L364.2,381.07L362.56,381.07C362.336,380.524 362.221,379.94 362.22,379.35C362.227,378.576 362.657,377.865 363.34,377.5C364.348,376.981 365.478,376.742 366.61,376.81C367.39,376.79 368.17,376.871 368.93,377.05C369.447,377.178 369.906,377.478 370.23,377.9C370.522,378.297 370.72,378.755 370.81,379.24C370.921,379.901 370.968,380.57 370.95,381.24L370.95,386.32C370.95,386.9 371.19,387.19 371.67,387.19C371.972,387.183 372.273,387.15 372.57,387.09L372.57,388.81C372.089,388.905 371.6,388.948 371.11,388.94C370.593,388.965 370.085,388.802 369.68,388.48C369.321,388.146 369.112,387.68 369.1,387.19C368.139,388.412 366.654,389.11 365.1,389.07C364.132,389.139 363.176,388.822 362.44,388.19C361.813,387.55 361.482,386.675 361.53,385.78C361.472,384.758 362,383.787 362.89,383.28C364.135,382.643 365.495,382.266 366.89,382.17L368.96,381.93L368.96,379.06C368.226,378.696 367.408,378.534 366.59,378.59C365.767,378.561 364.948,378.725 364.2,379.07ZM363.61,385.66C363.61,386.81 364.27,387.38 365.61,387.38C366.881,387.406 368.109,386.907 369,386L369,383.37L367,383.64C366.101,383.72 365.224,383.961 364.41,384.35C363.918,384.6 363.607,385.108 363.61,385.66L363.61,385.66Z" style="fill:rgb(235,92,55);fill-rule:nonzero;"/>
    </g>
    <g transform="matrix(1,0,0,1,-96,-96)">
        <path d="M377.58,378.83L377.58,385.46C377.58,386.64 378.1,387.23 379.14,387.23C379.769,387.262 380.398,387.184 381,387L381.2,388.72C380.397,389.014 379.545,389.153 378.69,389.13C377.831,389.197 376.987,388.86 376.41,388.22C375.893,387.489 375.635,386.605 375.68,385.71L375.68,378.88L373.45,378.88L373.45,377.39L375.68,377.14L375.68,374.19L377.61,373.83L377.61,377.14L380.79,377.14L380.79,378.88L377.58,378.83Z" style="fill:rgb(235,92,55);fill-rule:nonzero;"/>
    </g>
    <g transform="matrix(1,0,0,1,-96,-96)">
        <path d="M382.61,388.79L382.61,387.07L385.18,387.07L385.18,378.83L382.61,378.83L382.61,377.09L387.1,377.09L387.1,387.09L389.54,387.09L389.54,388.81L382.61,388.79ZM386,374.19C385.05,374.19 384.58,373.73 384.58,372.83C384.573,372.775 384.569,372.72 384.569,372.665C384.569,371.985 385.129,371.425 385.809,371.425C385.873,371.425 385.937,371.43 386,371.44C386.365,371.429 386.721,371.554 387,371.79C387.267,372.052 387.409,372.416 387.39,372.79C387.416,373.165 387.272,373.532 387,373.79C386.729,374.045 386.372,374.188 386,374.19Z" style="fill:rgb(235,92,55);fill-rule:nonzero;"/>
    </g>
    <g transform="matrix(1,0,0,1,-96,-96)">
        <path d="M396.34,376.83C399.88,376.83 401.65,378.86 401.65,382.92C401.65,387.02 399.87,389.08 396.29,389.08C394.771,389.203 393.281,388.588 392.29,387.43C391.38,386.116 390.933,384.536 391.02,382.94C391.007,378.873 392.78,376.837 396.34,376.83ZM396.34,387.28C397.315,387.383 398.276,386.969 398.87,386.19C399.423,385.2 399.676,384.071 399.6,382.94C399.678,381.808 399.42,380.677 398.86,379.69C398.247,378.931 397.29,378.532 396.32,378.63C395.355,378.531 394.404,378.931 393.8,379.69C393.232,380.667 392.971,381.793 393.05,382.92C392.976,384.061 393.24,385.199 393.81,386.19C394.411,386.962 395.367,387.373 396.34,387.28L396.34,387.28Z" style="fill:rgb(235,92,55);fill-rule:nonzero;"/>
    </g>
    <g transform="matrix(1,0,0,1,-96,-96)">
        <path d="M403.76,388.79L403.76,387.07L405.45,387.07L405.45,378.83L403.79,378.83L403.79,377.09L407.23,377.09L407.23,378.4C408.306,377.31 409.802,376.737 411.33,376.83C412.442,376.724 413.545,377.125 414.33,377.92C415.008,378.918 415.326,380.118 415.23,381.32L415.23,387.07L416.89,387.07L416.89,388.79L411.32,388.79L411.32,387.07L413.32,387.07L413.32,381.48C413.375,380.739 413.2,379.998 412.82,379.36C412.294,378.838 411.555,378.587 410.82,378.68C410.163,378.681 409.512,378.803 408.9,379.04C408.355,379.228 407.85,379.517 407.41,379.89L407.41,387.07L409.36,387.07L409.36,388.79L403.76,388.79Z" style="fill:rgb(235,92,55);fill-rule:nonzero;"/>
    </g>
</svg>
