<svg width="512" height="512" viewBox="0 0 512 512" fill="none" xmlns="http://www.w3.org/2000/svg">
<rect x="10" y="10" width="492" height="492" rx="120" fill="url(#paint0_linear_1_2)"/>
<path fill-rule="evenodd" clip-rule="evenodd" d="M256 123.562C182.857 123.562 123.562 182.857 123.562 256C123.562 329.143 182.857 388.438 256 388.438C329.143 388.438 388.438 329.143 388.438 256C388.438 182.857 329.143 123.562 256 123.562ZM209.095 154.196C170.631 171.948 143.938 210.857 143.938 256C143.938 317.89 194.11 368.062 256 368.062C314.6 368.062 362.694 323.084 367.643 265.767L361.382 259.507C359.06 257.184 357.126 254.502 355.657 251.564L340.987 222.222C339.271 218.792 334.7 218.05 331.988 220.762C329.103 223.648 324.879 224.742 320.955 223.621L303.665 218.681C297.099 216.805 290.284 220.741 288.628 227.366C287.389 232.319 289.398 237.515 293.646 240.347L301.616 245.66C309.639 251.009 310.764 262.362 303.945 269.181L301.226 271.899C298.36 274.765 296.75 278.652 296.75 282.705V288.285C296.75 293.824 295.245 299.259 292.395 304.009L274.538 333.77C269.358 342.405 260.027 347.688 249.958 347.688C242.042 347.688 235.625 341.271 235.625 333.355V317.442C235.625 304.945 228.017 293.707 216.413 289.065L207.528 285.511C194.193 280.177 186.371 266.277 188.732 252.11L188.828 251.536C189.458 247.754 190.794 244.124 192.767 240.837L193.982 238.812C200.627 227.737 213.517 222.035 226.183 224.568L242.182 227.768C249.988 229.329 257.685 224.636 259.872 216.981L262.704 207.069C264.724 199.999 261.422 192.492 254.844 189.203L245.813 184.688L244.577 185.923C238.845 191.655 231.072 194.875 222.966 194.875H220.508C217.142 194.875 213.905 196.22 211.524 198.601C207.674 202.451 201.778 203.42 196.907 200.985C190.316 197.689 187.925 189.479 191.717 183.16L209.095 154.196Z" fill="white"/>
<defs>
<linearGradient id="paint0_linear_1_2" x1="10" y1="10" x2="502" y2="502" gradientUnits="userSpaceOnUse">
<stop stop-color="#C0C8DD"/>
<stop offset="1" stop-color="#191F2D"/>
</linearGradient>
</defs>
</svg>
