<?xml version="1.0" encoding="utf-8"?>
<!-- Generator: $$$/GeneralStr/196=Adobe Illustrator 27.6.0, SVG Export Plug-In . SVG Version: 6.00 Build 0)  -->
<svg version="1.1" xmlns="http://www.w3.org/2000/svg" xmlns:xlink="http://www.w3.org/1999/xlink" x="0px" y="0px"
	 viewBox="0 0 1386.9 215.7" style="enable-background:new 0 0 1386.9 215.7;" xml:space="preserve">
<style type="text/css">
	.st0{fill:#FFFFFF;}
</style>
<g id="Layer_1">
</g>
<g id="Layer_2">
	<g id="video">
	</g>
</g>
<g id="Layer_5">
</g>
<g id="Layer_3">
	<g>
		<g>
			<g>
				<path d="M790.8,94.2c0.3,0.7,0.8,1,1.6,1h0.6c0.3,0,0.4-0.2,0.4-0.6l0.2-0.2h0.4l1.2,1.2h0.2l0.2-0.2l1.2,1
					c0.3,0,0.4,0.2,0.4,0.6l-0.2,0.6c0.3,0,0.4,0.2,0.4,0.6c0,1.2-0.6,2.7-1.9,4.3v0.2l0.6,0.6c1.3-0.1,1.9-0.4,1.9-1h1.2
					c0.5-0.3,0.8-0.8,0.8-1.6c0.7,0,1.5-0.5,2.5-1.6c0.8,0,1.2-0.3,1.2-1c0.8,0,1.2-0.4,1.2-1.2c1-0.9,1.9-1.6,2.9-1.9h0.4
					c0.8,0.9,1.6,1.4,2.3,1.4l0.4-0.6c2.5,1.2,3.8,2,4.1,2.5v0.8l-0.2,0.2c0.9,1.2,1.6,2.5,1.9,3.7h0.2l0.2-0.2v0.6
					c0.3,0,0.4-0.3,0.4-0.8c0.6,0,1.1-0.6,1.6-1.8c0.3,0,0.4-0.2,0.4-0.6c1.8-0.5,3.6-1.8,5.5-4.1c1.2-0.7,2.5-1.1,3.7-1.2l0.2-0.2
					l1.6,0.4l0.8-0.4c2.3,0,3.5,0.5,3.5,1.4l0.6,0.6l-0.4,1c2.5,1.8,3.7,2.8,3.7,3.1c0,0.8,0.2,1.7,0.6,2.5l-0.2,0.2v0.2l0.4,1.6
					c-0.3,0-0.6,0.5-0.8,1.6l0.2,0.2h-0.2l0.2,0.6c0,0.9-0.2,1.4-0.6,1.4c0,1.1,0.4,2.3,1.2,3.5l0.4,1.8l-1.4,1.6
					c0,0.6,0.3,1.2,0.8,1.8l-0.4,1.6v0.8l0.2,0.2l-0.6,2.7l0.4,1.4l-0.2,1.2v0.6l0.8,2.1l-0.2,0.2v0.8c0,1.8,0.3,3.6,0.8,5.3
					l-0.2,0.8c3.2,1.6,4.9,2.9,4.9,4.1c0,2.2-0.5,4-1.6,5.5h-1.8l-1.4,0.4l-1-1.2c-1,0.1-1.6,0.3-1.9,0.6h-0.2
					c-0.7-0.6-1.8-1-3.3-1.2l-0.2-0.2h-0.2c-0.4,0.3-1.2,0.6-2.5,1c-0.1-0.8-0.8-1.2-2.1-1.2c0-0.5-0.3-1-1-1.6l-0.2-0.8l0.2-0.2
					v-0.2l-0.2-0.6c0-0.6,0.5-1.2,1.4-1.8l1.2,0.4l0.8-0.4c0.1,0.5,0.3,0.8,0.6,0.8h0.4c0-0.8,0.5-1.2,1.4-1.2l0.4-1.2l-0.2-1.2
					c0.1-1.5,0.5-2.9,1-4.1c-0.4-0.1-0.6-0.6-0.6-1.6h0.2l-0.4-1.8l0.2-0.2v-0.2c-0.5-0.8-0.8-1.4-0.8-1.9c0.4-2.7,0.7-4.1,1-4.1
					c-0.2-1.3-0.4-1.9-0.6-1.9l0.4-2.3c-0.4,0-0.6-0.5-0.6-1.4c0.8-1.3,1.2-2.1,1.2-2.5l-0.4-3.1h0.2c-0.6-0.6-0.9-2.2-1.2-4.9
					l-1-1.2l0.2-0.2v-0.6h-0.4c0-0.4-0.1-0.6-0.4-0.6h-0.4c0,0.4-0.3,0.6-1,0.8c-0.1-0.4-0.7-0.7-1.9-1c-1.6,0.1-2.3,0.5-2.3,1.2
					c-0.4,0-0.9,0.3-1.6,1l-1.9,0.4c-0.2,0-0.8-0.6-1.8-1.9l-0.2-0.2h-0.2l-0.2,0.2c-0.4,0-0.6,0.5-0.8,1.6l-0.2,0.2h-0.6v-0.4h-0.2
					l-0.4,0.4l1,1.4l1.4,0.2v0.4l-1,0.8c0,0.9-0.4,1.4-1.2,1.4l-0.4,1h0.2c-0.4,1.2-0.7,1.8-1,1.8h-0.2v-0.2c0-0.9,0.4-1.7,1.2-2.5
					c-0.3,0-0.4-0.2-0.4-0.6c-0.6,0-1,1.5-1,4.5l0.6,0.6l-0.2,0.2l0.4,1.8l-0.2,1c0.7,3.8,1.2,5.6,1.6,5.6l0.2,1.2l-0.8,0.8l0.4,1
					c-0.3,0-0.8,0.5-1.4,1.4v0.2c1,0.6,1.6,1.6,1.6,3.1v0.2c-0.7,0-1,0.5-1,1.4l0.2,1l-0.6,0.2v0.4l0.4,1.6l-0.2,1.2
					c0.5,1,0.9,1.5,1.2,1.6l1-0.2c0,0.3,0.6,0.6,1.9,1l1.6,2.7v0.6c0,0.6-0.6,1.4-1.8,2.3l-0.6-0.4l-1.6,1l-1.6-1.4
					c-0.8,0-1.5,0.4-1.9,1.2c-2.6,0-4.6-0.9-6-2.7v-0.6l0.8-2.5c0.4-0.5,1.1-0.9,1.9-1.2l0.8-2.1l-0.2-0.2l0.2-1
					c0-1.9-0.3-3.8-1-5.5v-1l0.2-0.2c0.4-0.5,0.6-1,0.6-1.6l0.2-0.2l-0.6-2.3l0.2-1.8L812,118l0.4-1.2l-0.2-1.2
					c0.4-0.3,0.6-1.3,0.8-2.9c0.3,0,0.4-0.3,0.4-0.8c0.6,0,1.1-0.3,1.6-1v-0.2h-0.4l-0.8,0.6l-0.4-1c0-0.5,0.3-1,0.8-1.4l1,0.6
					l0.6-1l-0.2-1.2v-0.4h-1v0.4l-1-0.2l-0.2,0.2l-0.4-1.2l0.2-0.2v-0.2c-1.5-1.8-2.3-3.4-2.3-4.7c-0.6-0.2-1-0.5-1-0.8h-0.2
					c-0.7,0.9-1.5,1.4-2.5,1.4L806,102v0.2l-0.6,0.6l-0.2-0.2l0.2-1l-1.6-1.6h-1c-1.6,2.1-2.8,3.1-3.5,3.1l-0.4,1.8l0.4,1.6v0.2
					c0,1.1-0.6,2.2-1.9,3.5l-0.8,3.5h0.2c0.9,0,1.5,0.7,1.8,1.9c-0.2,1-0.4,1.6-0.8,1.6l-0.6-0.6v0.8l0.4,0.4h0.2
					c0,0.4-0.2,0.6-0.6,0.6l-0.2,0.2v0.2l0.4,2.1l-0.2,1.2l0.2,2.1c-0.9,1.4-1.4,2.3-1.4,2.9c0.5,0.2,1,1.2,1.6,2.9l-1,1.4l0.4,0.6
					l-0.2,1.6l1.6,2.1c0.6,1.2,0.9,1.8,1.2,1.8l0.6,0.4l0.8-0.4c1.2,0.8,1.8,1.7,1.8,2.5l0.6,1c0,1-0.8,1.7-2.3,2.1h-0.8l-0.6-0.4
					h-1l-2.3,2.1h-0.4l-0.4-0.4c0-0.3-0.5-0.4-1.6-0.4v-0.2c-0.4,0-1.2,0.7-2.3,1.9L791,146c-0.3,0-0.8-0.5-1.4-1.6
					c-2-1.6-3.2-2.7-3.5-3.5c0-2.9,0.6-4.3,1.8-4.3l1.8-0.4c0,0.3,0.6,0.5,1.8,0.6l0.4-0.8l-0.2-1.2l0.2-0.2v-0.2l-0.2-0.2v-0.2
					l0.4-1.2c-0.4-1.2-0.8-1.8-1.2-1.8l0.2-0.2v-1l-0.4-0.4l0.8-2.7l-0.8-3.1l0.4-2.7l-0.2-0.2v-0.2l0.6-3.9l-0.4-1.2
					c0.1-0.8,0.2-1.2,0.4-1.2l-0.2-0.2v-1.2c0-1.9,0.3-3.1,0.8-3.5v-0.2c0-0.6-0.2-1-0.6-1v-1.2l-0.6-0.2l0.6-3.3l-0.8-1.6l-0.2,0.2
					h-0.2c-0.5-0.4-1.1-0.6-1.8-0.6l-1,0.2l-1.9-1.4l-0.6-1.2c0.2-2.7,0.9-4.1,1.9-4.1c1.2,0,2.1-0.3,2.7-0.8L790.8,94.2z"/>
				<path d="M874.1,93.9c0,0.2,0.7,0.5,2.1,0.8l0.4,0.4h0.2v-0.4l1,0.2h0.2l2.3-0.4c0.6,0.4,1.6,0.6,2.7,0.8c0.3,0.6,0.9,1,1.8,1.4
					l1.8-0.2c0.6,0,1.4,0.8,2.5,2.3h0.4c0,0.6,0.7,1.3,2.1,2.1l1.6,3.3c0,0.7,0.4,2.1,1.2,4.3l-0.2,1.4h0.2l-0.8,1.9v0.4h0.2
					l-0.4,3.9c0.5,0.8,0.8,1.4,0.8,1.8v4.3l-1.2,1.4c0.4,0,0.6,0.8,0.6,2.5v1.2c0.6,0.7,1.1,1.7,1.4,2.9l-0.2,0.8l0.6,1.8l-0.2,0.8
					l1.2,1.6c2.3,0.7,3.5,1.6,3.5,2.7c0.2,0.4,1.1,0.6,2.7,0.8l0.4,1.8l-0.2,0.8l0.4,1.2c-0.5,1.8-1.2,2.7-2.1,2.7
					c-0.1,0.4-0.5,0.6-1.2,0.6H899l-1-0.8h-0.2l-1.8,1.4h-0.2c-0.6-1.8-1.5-2.7-2.7-2.7c-0.5-0.5-1-1.5-1.6-3.1
					c-0.7-0.9-1.7-1.6-2.9-1.9c-1.9,0.2-2.9,0.8-2.9,1.8c-0.3,0-1,0.8-2.1,2.3c-0.8-0.6-1.4-1-1.8-1h-1c-0.6,0.5-1.1,0.8-1.6,0.8
					l-0.2-0.2h-0.2l-1.4,1h-0.2l-0.6-0.4h-0.2c0,0.3-0.3,0.6-0.8,0.8H875l-0.8-0.2l-1,0.4c0-0.4-0.9-0.6-2.7-0.8
					c0,0.4-0.6,0.7-1.8,1v-0.4c-0.5-0.4-0.9-0.6-1.4-0.6v-0.4h-2.1c-0.9-0.9-2-1.4-3.1-1.4l-1.9,0.2l-2.1-1.9
					c-0.5-1.6-1-2.6-1.6-3.1l-1.6-5.1l-1.4-2.1c0.4-0.9,0.7-2.7,1-5.3c0.5-0.3,1-1,1.6-2.1c0.7,0,1.2-0.6,1.4-1.9l1.4,0.4v-0.2
					l1.4-3.1l2.1-0.8h0.6l0.2,0.2h0.2c1.3-0.4,2.2-0.8,2.5-1.4l1-0.6l1.2,0.2l0.2-0.2l0.8,0.4l1-0.2l0.6,0.6h0.2
					c0.9,0,1.5-0.3,1.9-0.8l1,0.2h0.6c0.3-0.4,1.1-0.6,2.3-0.8l2.9,0.6c0-0.4,0.2-0.6,0.6-0.6c0-0.6,0.8-1,2.5-1l0.8,0.2l0.8-0.4
					l1,0.4l1.2-0.8l1,0.2c0.9-1,1.4-1.9,1.6-2.7l-0.2-1.2l0.2-1c-0.4-0.5-0.6-1.1-0.6-1.9c-0.7,0-1.3-0.6-1.9-1.8
					c0-0.5-0.5-1.4-1.6-2.5l-2.7-0.6v0.2c-1.7-1.2-2.9-1.8-3.5-1.8c-0.3,0-1.2,0.6-2.5,1.8h-0.4v-0.2l-0.2,0.2h-0.2
					c-0.6,0-1.3-0.6-1.9-1.8l-0.8-0.6h-0.2c-0.5,0.4-1,0.6-1.6,0.6c0,0.3-0.5,0.4-1.4,0.4c-1,1-1.6,1.6-1.6,1.9
					c0,0.8-0.5,1.2-1.4,1.2l-0.2-0.2h-0.2v0.6l-0.6,1.9l0.4,0.4v3.1c0,0.6-0.3,1.4-1,2.3c0,0.6-0.4,1-1.2,1.2
					c-0.3,0.6-0.5,0.9-0.8,1c0-0.3-0.9-0.5-2.7-0.6l-1.8,0.2c-1.1-1.5-2-2.4-2.7-2.9l0.2-0.8l-0.6-3.1c0.1-0.6,0.5-1,1.2-1.4
					c0.4-0.3,0.6-0.9,0.6-1.8c1-1.3,1.6-3,1.8-4.9l6.6-1.9h1.8l3.1-1.2l1.2,0.4C871.5,94.7,872.4,94.3,874.1,93.9z M881.8,118.4
					h-0.4c0-0.9-0.4-1.4-1.2-1.4c-0.8,1.2-2.7,1.8-5.5,1.8l-1,1h-0.4l-0.2-0.2h-0.2c-0.3,0.8-0.6,1.2-0.8,1.2h-0.2
					c0-0.6-0.5-1-1.4-1.4c-0.9,0-2.2,0.3-3.9,1l-1.2-0.4c-0.9,0-1.8,0.6-2.7,1.9c0,0.3-0.8,1.1-2.3,2.3l-1.6,2.7l0.2,1.4v2.7
					c0,0.5,0.5,1.2,1.6,2.1c0,0.8,0.5,1.2,1.4,1.2c0,0.4,0.7,0.8,2.1,1.4l6,1.4c0-0.5,0.5-0.9,1.6-1.2l4.9,1c0-0.4,0.9-0.9,2.7-1.6
					l0.8,0.4c0.8-0.5,1.8-1,3.1-1.4v-0.2l-0.2-1.6l0.6-0.4l1,0.2c1.7-0.2,2.5-0.9,2.5-2.1c0-0.8,0.9-1.8,2.7-2.9l0.2-1.2l-0.6-0.6
					l0.2-1.8c-0.3,0-0.6-0.6-1-1.8l-1-0.4V121l0.6-0.8V120c-0.4-1-0.9-1.6-1.4-1.6c0-0.9-0.8-1.6-2.3-2.1c-0.3,0-0.8,0.6-1.6,1.8
					L881.8,118.4z"/>
				<path d="M941.1,88.4h0.4v1.4l-0.2,1.2l0.2,0.2v0.2l-0.2,0.6l0.8,0.6l0.2-0.2h0.4L945,93l1.6,2.7c1,0.4,1.8,0.9,2.3,1.6
					c0.8,0,1.2,0.2,1.2,0.6l0.6-0.2c0.8,0.3,1.4,0.8,1.8,1.6l-0.2,0.2v0.4l0.8,1.8c0,0.6,0.5,1.4,1.6,2.5l-0.2,1.8l0.6,0.2l1.2-0.2
					l0.8,0.4l0.8-0.2v0.4l-0.8,3.1v2.1c0.3,0.8,0.9,1.2,1.9,1.2l0.2,0.2v0.2l-0.4,1.6l0.2,0.8c-0.3,1.2-0.7,1.8-1.2,1.8l0.2,0.2v0.2
					c-0.1,1.3-0.3,1.9-0.6,1.9l-0.2-0.2h-0.2l-0.2,0.2v0.2l1,1.6l-0.2,0.2l0.2,1.4v0.8c-0.6,2.7-1.2,4.1-1.8,4.1
					c-1.2,1.3-1.8,2.6-1.8,3.9c-0.9,0-1.4,0.5-1.4,1.4c0,0.6-0.1,1.1-0.4,1.4l-0.8-0.2c-1.3,0.1-1.9,0.6-1.9,1.6
					c-0.5,0-0.8,0.2-0.8,0.6l-2.3-1.4c-0.3,0-0.4-0.3-0.4-1h-0.2l-0.4,1.4l0.2,2.1c-1.7,0.6-2.5,1.4-2.5,2.1l-0.8-1l0.2-0.2h-1.4
					l-1.6-0.4l-1.8,0.2h-0.2l-0.8-0.8c-0.6,0.2-1,0.4-1,0.6c-1.1-0.4-1.7-0.8-1.8-1.4c0.6-1.8,1.3-2.7,2.3-2.7h0.2v0.4h0.4
					c0-0.4,1.1-0.7,3.3-1.2l2.3,0.2c1.2,0,1.9-0.5,2.1-1.4l1.6-1.2l1.8-2.7c0-0.4,0.2-0.7,0.6-1c0-0.5,0.1-0.8,0.4-0.8l0.6,0.2
					l0.2-0.2c-0.1-1.3-0.3-1.9-0.6-1.9c0-1.6,0.5-2.3,1.4-2.3c0-0.3,0.3-0.4,0.8-0.4l1.2-2.3l-0.2-0.2c-0.3,0-0.4-0.2-0.4-0.6
					l0.8-1.6l-0.6-3.7c0.4,0,0.6-0.3,0.6-0.8h0.2c-0.3-0.5-0.4-1.2-0.4-2.1c0-0.6,0.2-1,0.4-1c-0.2-1.9-0.6-2.9-1.4-2.9
					c0-0.2-0.7-0.6-2.1-1.2c0-0.3-0.5-0.6-1.4-1.2l-1.2-2.1l0.2-1.9c-0.5-0.6-1.5-0.9-2.9-1.2c0-0.5-1.4-1-4.3-1.6h-0.2l-1,0.2
					l-1.4-0.6h-0.4c-0.2,1.3-0.5,1.9-0.8,1.9c-1-0.1-1.6-0.5-1.6-1.2l-0.2,0.2h-0.2l-0.6-0.4h-0.6c-0.6,0.7-1.2,1.1-1.9,1.2
					c0,0.4-0.1,0.6-0.4,0.6l-1.2-0.4c-0.9,0-1.4,0.3-1.4,1l-2.5,1.9l-0.4-0.4v-0.8h0.6v-0.2l-0.8-0.8c-0.6,0.3-0.9,0.5-1,0.8
					l0.4,0.6l-0.2,0.2l0.2,0.2c-0.4,0-0.7,0.3-1,1l-1.2-0.4l-0.2,0.2v0.2l1.2,3.5l-0.2,2.1l0.2,0.6c-0.2,0-0.5,0.5-1,1.4
					c0.4,0,0.8,0.3,1.2,1v1.4c-1,1.5-1.6,2.7-1.6,3.5l-0.2-0.2h-0.2l0.2,0.2v0.6h-0.4c0.6,1.1,1,2.5,1,4.3c0.3,0,0.5,0.5,0.6,1.4
					L923,123c0.9,3.4,1.8,5.1,2.7,5.1c0,0.5,0.6,1.2,1.8,2.1l0.4-0.4c0.3,1.2,0.7,1.9,1.2,2.1l0.4-0.4c0.9,0.1,1.4,0.7,1.4,1.8
					l0.2-0.2c0.4,0,0.6,0.3,0.6,1l1.2,1l0.6-0.2l0.4,0.6v0.4c-0.4,0-0.7,0.3-1,1c-0.7,0.1-1.3,0.4-1.8,0.8c-0.5-0.5-1-0.8-1.8-0.8
					c-0.8-0.9-1.2-1.5-1.2-1.8l0.6-1v-0.6l-1.6-0.4c-0.6,0-1.2,0.7-1.6,1.9h-1c0-0.4-0.1-0.6-0.4-0.6h-0.4c0,0.4-0.1,0.6-0.4,0.6
					l-0.2-0.2h-0.4v0.2h0.4l-0.4,2.7c0.2,0,0.6,0.6,1.2,1.9l-0.4,1.6v1l0.4,1.4l-0.4,2.3l0.6,4.7l-0.4,0.8l0.2,0.6l-0.2,0.6h0.2
					l0.2,0.2l1.4,1.2h0.6l0.4-0.4l1,0.2l0.6-0.4l0.8,0.4l1.4-0.2l0.4,0.4h0.2l0.2-0.2c0.8,0.2,1.5,0.6,1.9,1.2
					c0.5,0,0.8,0.6,0.8,1.8c0,1.1-0.3,2-1,2.7l0.2,0.2v0.2c0,0.8-1,1.2-3.1,1.4l-1,0.8c0-0.4-0.6-0.6-1.8-0.6l-1,0.2l-0.4-0.4
					l-0.8,0.6h-0.2c-0.4-0.5-1.1-0.8-2.3-1c-1,0.3-1.8,0.8-2.3,1.4l-0.8-1.6h-0.2l-1.8,0.4v-0.2l-0.4-0.4l-0.8,0.6h-0.6
					c-0.5-0.4-1.4-0.6-2.7-0.8c0-0.3-0.3-0.5-1-0.6l-0.2-0.2h-0.2l-1.2,0.6v-0.2c-0.1-0.8-0.5-1.2-1-1.2l-0.8,0.2l-0.8-1v-0.4
					c0.6-0.6,1.2-1.6,1.8-3.1c1-0.6,2-1,3.1-1l1.4,0.2c2.2,0,3.3-0.6,3.3-1.8l1.4-2.3h-0.4l-0.8,0.6h-0.2v-0.2l0.2-0.2
					c-0.6-1-1-1.7-1-2.1v-0.2l0.2-0.8L916,145l1.2-3.5c0.2,0,0.4-0.5,0.6-1.4c0.4,0,0.6-0.4,0.6-1.2h0.2l-0.8-2.1l0.4-1.2
					c-0.4-1.3-0.8-2.1-1.4-2.5c-1.7-0.4-2.5-1-2.5-1.9c0.4,0,0.6-0.3,0.6-0.8l2.5-1.4c0-1.1,0.5-2.2,1.4-3.3v-0.4
					c-0.5-1.2-0.8-2.1-0.8-2.7c0-0.4,0.3-0.6,0.8-0.6v-1.8c-0.6,0-1.1-1.7-1.6-5.1v-1.4c0-0.4,0.2-0.9,0.6-1.4l-0.4-0.4l0.2-0.8
					l-0.2-0.6l0.2-1.6l-0.4-2.3l0.4-1.6l-0.4-0.4l0.2-0.2l-0.4-1.8h-0.2l-0.2,0.2l-1.9-1v-0.4l0.2-0.2v-0.2c-0.6,0-1.1-0.4-1.6-1.2
					h-0.4l-0.2,0.2h-0.2c-0.8-0.6-1.4-1-1.8-1v-0.2l-0.2,0.2c-0.8,0-1.4-0.4-1.9-1.2c-0.6-0.2-1-0.6-1-1.4v-0.2
					c1-1.4,1.6-2.7,1.6-3.9c0.9,0,1.5-0.3,1.8-1l0.6,0.4l2.1-0.4c0,0.3,0.6,0.6,1.9,0.8l1.2-0.4h0.4c0,0.3,0.4,0.6,1.2,1h0.2
					l0.2-0.2h0.2l0.4,0.4l0.2-0.2l2.1,0.6l0.2-0.2c0.3,0.4,0.5,1.1,0.6,2.3c-0.5,0.6-0.8,1.2-0.8,1.6v0.4l1.6,1.6
					c0.8,0,1.6-0.8,2.3-2.3l0.6-0.2c0-0.6,0.6-1.2,1.8-1.8l1.4-1.8c0-0.4,0.1-0.6,0.4-0.6h1.6c0.7,0,1.5-0.3,2.1-1l0.2,0.8h1.6
					l2.9-1.2l0.4,0.4l1.9-2.7v0.4h0.6L941.1,88.4z M914.6,101v0.2h0.4v-0.6L914.6,101z M915.4,100.1v0.6l0.4,0.4h0.2l-0.2-1H915.4z
					 M918.9,150.1v0.4h0.2v-0.4H918.9z M926.5,100.1v0.4h0.4L926.5,100.1z M953.5,119.3v0.2l0.4,0.4l0.2-0.2v-0.2l-0.2-0.2H953.5z"
					/>
				<path d="M1010.2,89.6c1.1,1.4,2.1,2.2,2.9,2.3l0.8-0.2l0.8,0.2l1.9-0.2c0,0.4,0.8,0.6,2.5,0.8l0.8-0.8c0.3,0,0.5,0.6,0.6,1.9
					l-0.2,0.8l0.2,1.9v0.4l-0.4,0.6l0.6,2.3v1c0,0.7-0.5,1.8-1.6,3.3l-0.2,0.6l0.4,1h-0.2c0,0.4,0.2,0.6,0.6,0.6l0.2,0.2v0.2
					l-0.2,0.8c0.3,0.4,0.5,1.2,0.6,2.3c-1.6,1-2.3,1.6-2.3,1.8l-2.1-0.8l-2.1,0.4c-0.8-0.7-1.2-1.3-1.2-1.8l-1-1.4
					c-0.4,0-0.6-0.1-0.6-0.4l0.6-0.2v-1l-1-1h-0.8l-0.4,0.8c0,0.7,0.2,1.3,0.6,1.8l-0.2,0.2l0.2,0.6c-0.1,1.2-0.4,1.8-0.8,1.8
					c-0.7,0-1.1-0.2-1.2-0.6l-0.2,0.2h-1c-0.6-0.3-1.2-0.9-1.6-1.9l-0.6-0.6v-1.4c-0.3,0-0.7-0.4-1.2-1.2l0.2-1v-0.2
					c-0.2-0.9-1.2-1.4-2.9-1.4c-1.1-1.1-1.8-1.7-2.1-1.8l-1.2,0.2l-0.8-1.2c0-0.8-0.6-1.2-1.9-1.2c-0.1,0.5-0.6,0.8-1.6,0.8
					c-0.3,0.7-1.1,1.7-2.3,2.7c0,0.6-0.6,1.2-1.9,1.8c-0.6,0.5-1,1-1,1.8l-1,1.2v0.2l0.2,0.8l-0.2,0.8l1.2,2.1
					c0.3,0,1.4,0.6,3.3,1.9l1.6-0.2l2.9,0.6l4.1-0.8c0.6,0,1.5,0.6,2.9,1.9l1,0.2l0.8-0.2l1.2,0.6l2.5-0.4h0.4
					c0.5,0.4,1.6,0.8,3.1,1.2l1.8,1.6l0.4,0.6c0.6-0.5,1.2-0.8,1.9-0.8c0-0.4,0.2-0.6,0.6-0.6c1,0,2,0.8,2.9,2.5
					c0,0.3,0.6,0.9,1.8,1.9c0.3,2.1,0.7,3.1,1.4,3.1c0.4,0,0.8,0.3,1.2,1v0.2l-0.6,0.6v-0.4h-0.4v0.2l0.2,0.6
					c-0.3,0-0.5,0.5-0.6,1.4l0.4,1.4c-0.5,0-0.8,0.8-1.2,2.3l0.2,0.8c0,0.9-0.7,1.7-2.1,2.3c-0.1,1-0.5,1.6-1.2,1.6
					c0,0.3-0.3,0.6-1,0.8c0,0.9-0.7,1.5-2.1,1.9c-0.4,0.4-0.7,1.2-1,2.5c-0.5,0.6-0.9,1-1.4,1l-0.8-0.4l-4.9,1.8l-1.8-0.6l-2.5,0.2
					c-0.6-0.4-1.3-0.6-1.9-0.6l-1,0.2c0-0.5-2-0.8-6-1l-0.2-0.2l-2.3,0.8L990,142c-1.1,0-1.9,0.4-2.3,1.2l-1.4-0.8
					c-0.4,0.1-0.6,0.5-0.6,1.2h-0.2l-1-0.2l-0.6,0.8h-0.4c-0.8-1-1.8-1.8-3.1-2.5c-0.2-0.7-1.1-1.8-2.7-3.3c-0.3,0-0.9,0.7-1.9,2.1
					c-0.5,0-1.5,0.5-3.1,1.4h-1c-0.8,0-1.4-1.3-1.8-3.9c0.4-2.2,1-4.5,1.8-6.8l-1-3.3v-0.6l0.2-0.2l-1-3.3c0.3-1.1,0.9-2.1,1.8-3.1
					l1.6-0.2l1.2,1.2l0.2-0.2h0.2c1.3,1.2,2.1,2.4,2.5,3.5c0.4,0,1.2,0.3,2.3,1c0.9-0.4,1.8-1.1,2.5-1.9h0.2
					c0.9,1.2,1.8,2.1,2.5,2.7v0.4l-0.2,1c1.4,0.5,2.1,1.3,2.1,2.5c0.9,2.1,1.6,3.1,2.1,3.1l2.7,0.6l0.2-0.2l3.1,1.6l0.6,0.2
					c0.8-0.4,1.6-0.6,2.3-0.6l1.6,0.2c0.5-1,1.4-1.8,2.9-2.3c0-0.3,0.5-0.8,1.6-1.4c0-0.6,0.6-1.3,1.6-2.3c0-1.2,0.4-1.8,1.2-1.8
					c0.4,0,0.6-0.1,0.6-0.4l-0.2-0.6l0.2-1c-0.5-1.6-1.4-2.7-2.5-3.3c-0.2-0.9-1.1-1.4-2.5-1.4l-0.4-0.4v-0.2h-0.2l-1.2,0.8
					l-4.9-3.3l-0.2-0.2l-2.7,0.6l-1-0.8c-1.5,0.2-2.3,0.4-2.5,0.6h-0.6c-0.3,0-0.4-0.2-0.4-0.6l-0.2-0.2h-0.2l-0.4,0.4l0.2,0.2
					l-0.2,0.6h-0.6l-1-0.2c-1.4,0.2-2.1,0.4-2.1,0.6c-0.5-0.2-0.9-0.5-1.2-1l0.2-0.8c-1.6-0.7-2.3-1.2-2.3-1.4
					c0-0.9-0.8-1.5-2.5-1.8c-0.5-0.7-1.4-1.3-2.5-1.6c0-0.3-0.5-0.8-1.4-1.4c0-0.9-0.5-2.7-1.6-5.3l-0.4-1.2c0-1.1,0.6-2.4,1.9-3.9
					h0.4c0,1,0.3,1.6,0.8,1.6h1v0.6h0.4v-1.4c-1.2-1.4-1.8-2.7-1.9-3.9l0.2-0.2h0.2l1.4,0.2l0.4-0.4h1c0.5,0,0.8,0.9,1,2.7
					c-1.4,1.7-2.1,3-2.1,3.9v0.2l1.2,3.1l-0.2,0.8c1.1,0.6,2,1.5,2.5,2.7c0.4,0,0.9,0.4,1.6,1.2l0.6-0.6v-0.4
					c-0.8-1.9-1.5-3-1.9-3.3l0.6-2.5l-0.2-1.4l1.4-4.9c-0.1-0.9-0.4-1.7-0.8-2.3c0-1.6,0.8-2.3,2.3-2.3c0-1.6,1.4-2.3,4.1-2.3
					c0-0.3,1.3-0.5,3.9-0.6v0.2l1.2-0.6h0.2c0.9,0.7,1.6,1,2.1,1l0.2-0.2h0.2c1,0.3,1.6,0.6,1.6,0.8l1.2-1.2h1.6
					c1.4,1,2.4,1.6,3.1,1.6c1-0.2,2.1-0.8,3.3-1.9c1.6,0,2.6-0.4,2.9-1.2H1010.2z M1012,125.7l-0.2-0.2h-0.2c-0.2,0-0.5,0.6-0.8,1.8
					c-0.3,0-0.6,0.7-1,2.1l0.4,1.6l-0.2,1.8h0.2c0.8-0.2,1.4-0.5,1.6-0.8l1,0.2h0.4l1.8-2.9v-0.6l-0.4-1.2h0.2l-0.2-0.2l0.2-1v-1
					c0-0.9-0.5-1.4-1.4-1.4h-0.6C1012.5,123.9,1012.2,124.5,1012,125.7z M1012.1,114.2l0.4,0.4h-0.4V114.2z"/>
				<path d="M1029.7,98h0.4v0.4L1029.7,98z M1048.6,77.9l1.2,0.2v-0.2c0.8,0,1.7,2.4,2.8,7.2l-0.6,0.8l1,4c0,0.4-0.2,0.6-0.6,0.6
					l-0.2,0.2v0.2l0.4,0.8l-0.2,0.2V92l1.8,3h0.2l0.6-0.4l0.2,0.2h0.2v-0.2l0.2,0.2h0.2l0.8-0.2c0,0.6,0.4,1.2,1.2,1.8h0.8
					c0-0.5,0.3-0.8,1-1v0.2c1.2-0.9,2.6-1.5,4.2-1.6c0-0.3,0.6-0.4,1.8-0.4l1,1.2c0.9-0.4,2.8-0.8,5.6-1.2v1.2h1
					c0.4,0.1,0.6,0.5,0.6,1.2v2l0.4,0.6V99c-0.7,0-1.6,0.8-2.8,2.4c-0.4,0-0.6-0.3-0.6-0.8h-0.2l-1.6,1.6c-0.3,0-0.5-0.4-0.8-1.2
					l-0.2,0.2h-1.6l-0.2-1l-2.4,0.8l-0.4-0.4l-0.8,0.2l-1.4-0.2l-0.4,0.4c-0.4-0.4-1.2-0.7-2.6-1c-0.6-0.9-1-1.4-1.2-1.4l-1.6,1
					h-0.6l-0.6-0.4c-0.8,0.6-1.6,1.6-2.4,3.2c0.1,1.2,0.2,1.8,0.4,1.8l-0.2,0.2v2.8c0.4,0.3,0.6,1.3,0.8,3c-0.6,1-0.8,1.8-0.8,2.4
					l0.2,0.2l-0.2,1v1.2c0,0.3,0.2,0.4,0.6,0.4v0.6c0,0.9,0.2,1.4,0.4,1.4l-0.2,1v1l1.4,0.8v0.4c-0.3,0.8-0.8,1.3-1.6,1.6v0.4
					c0,0.4,0.4,0.6,1.2,0.8l0.2,1v0.8c-0.2,0.7-0.6,1-1.2,1v0.2l0.2,0.8l-0.2,0.8l0.6,1.4v0.2l-0.6,0.8v0.2c0,0.6,0.3,1,1,1.4v0.2
					l-0.2,1.4l1,1.8l-0.2,0.2l0.2,0.2h-0.2c0,0.6,0.9,1.3,2.6,2.2l2-0.4l1.6,0.8c0.4,0,0.6-0.2,0.6-0.6h0.6c1.7,0,2.6-0.6,2.6-1.9
					c0.5,0,0.9-1,1.2-3c0.3,0,0.5-0.5,0.8-1.4l-0.2-0.8l0.4-1.2l-0.4-0.4v-1.4l0.4-1.6v-0.6l-1.2,0.2l-0.6-0.2V125
					c0.4,0,1.5-1,3.2-3l0.8-0.6l0.6,0.2v-0.2c0-0.5,0.4-1.4,1.2-2.8v-0.4h1l0.2-0.2c1.5,0.2,2.2,0.5,2.2,0.8
					c0.5,1.3,1.1,2.4,1.8,3.4v0.4l-1,1v1.8l0.4,1.2c-0.7,0.8-1.2,2.3-1.6,4.6c-0.5,1-0.8,2.1-1,3.4c-0.6,1.2-1.3,1.8-2,1.8l-0.2,1
					v0.6l-1,0.4h-0.2l0.2-0.2v-0.4c-0.4,0-0.6-0.2-0.6-0.6c-0.4,0-0.6-0.2-0.6-0.6h-0.2c-0.4,1-0.6,2-0.6,3h0.2l0.6,0.2v0.4
					l-0.4,0.4h-0.4v-0.4c-0.4,0.4-0.9,0.6-1.4,0.6c-0.2,1.6-0.9,2.4-2.2,2.4l-0.6,0.6c-1.3-0.1-2-0.2-2-0.4c-0.1-0.4-0.7-1-1.8-1.6
					c0,0.9-0.9,1.5-2.6,1.6l-0.2-0.2h-0.2l-0.8,0.2c-0.2-0.8-0.4-1.2-0.6-1.2h-0.2v0.6h-0.6c-0.5-1.3-0.9-2-1.2-2l-0.2,0.2h-0.2
					l-0.8-0.2l-1.2,0.4l-0.4-1l-0.2,0.2h-0.2c-0.5-0.4-1.3-0.7-2.4-0.8c-0.9-2.5-1.6-3.7-2-3.7l0.2-0.6l-1.2-5.2
					c0.5-0.2,0.8-0.4,0.8-0.6v-0.2c-0.4-0.6-0.8-2.1-1.4-4.6c0-1,0.4-2.4,1.2-4.4l-0.2-3.9h0.4v-0.4c-0.4-0.7-0.8-1.8-1.2-3.2
					c0.5-1,0.8-1.8,0.8-2.4l-0.4-0.4v-0.4l0.2-1.2l-0.2-0.8h0.2c-0.2-0.7-0.6-1.4-1.2-2.2l0.4-1c-0.9-0.6-1.4-1.3-1.4-2v-1.4
					l0.2-0.2v-0.2h-0.4v0.4h-0.2c0-0.5-0.3-0.8-0.8-0.8c-0.2-0.5-0.7-0.8-1.4-0.8h-0.2l-1.4,1.4l-0.6,0.2l-0.4-0.8l-3,0.8l-2.2-1.2
					l-0.2-1h-0.2l-0.8,0.6h-0.2c-0.3,0-0.5-0.3-0.6-1l0.2-0.2h0.4v0.4h0.2c0-1.4,0.8-2.1,2.4-2.1l0.2-1.4h0.6c0.6,0,1.1-0.3,1.6-1
					l1.2-0.6c0,0.4,1.1,0.7,3.4,1v-0.2l2.6,1.2l0.2,0.2v0.2c0.4-0.1,0.6-0.4,0.8-0.8h0.4v-0.2c0-0.3-0.2-0.4-0.6-0.4V93l0.2-0.2
					l-0.2-0.6l0.2-0.6l-0.2,0.2h-0.2l-0.2-0.2l1.2-3.6c0.4-0.1,0.6-0.4,0.8-0.8c0.5,0,0.9,0.5,1.4,1.4l-0.4,2c0,1.8,0.6,2.8,1.8,2.8
					v-0.2l-0.2-1c0.5,0,0.9-1.8,1.2-5.4l-0.4-2.2l0.2-0.2v-0.4l-1.4-2.4C1047.8,79.2,1048.2,77.9,1048.6,77.9z M1045.1,80.3h0.4
					l0.4,6.2l-0.6,0.4h-0.2c-1-1-1.6-2.7-1.6-5.2L1045.1,80.3z M1045.3,96h0.6l0.4-1l-0.2-0.2C1045.8,94.8,1045.5,95.2,1045.3,96z
					 M1045.3,137.3h0.2l0.4,0.4h-0.2L1045.3,137.3z M1046.6,107.5l0.6,1.4c-0.2,1.2-0.6,1.8-1,1.8v0.6l0.4,0.6l-0.2,1.2l0.4,0.6v0.4
					c0,0.7-0.4,1.3-1.2,2c0.5,0.9,1.1,1.4,1.8,1.4v0.4l-0.6,1.8l0.2,0.2v0.8l-0.4,1.6l0.8,0.8v0.2l-0.2,0.8l0.2,0.6
					c0.9-1,1.4-2.8,1.4-5.2l-0.6-2c0.6-1.2,1-2.1,1-2.8v-1.2h-0.4l-0.4-0.6l0.2-1.4v-0.2l-0.4-3h0.2l0.4-0.6l-1.2-2.8l0.4-0.6
					l-0.2-0.8C1047.2,103.6,1046.8,104.9,1046.6,107.5z M1047.3,125.8l-0.2,0.6l-0.2-0.2h-0.4c0.1,0.8,0.3,1.2,0.6,1.2h0.2l0.4-0.4
					v-0.8L1047.3,125.8z M1047.7,129.4l-0.4,0.6v0.2h0.4l-0.6,0.6c0,0.6,0.1,1,0.4,1l-0.2,0.2v0.4l1.6,1.6c0.5-0.6,0.8-1.1,0.8-1.6
					l-0.8-1v-0.6l0.2-0.2C1049.1,130.2,1048.7,129.8,1047.7,129.4z M1047.5,94.6l0.2,0.2h0.2v-0.6L1047.5,94.6z M1052.3,120v0.4h0.4
					V120H1052.3z M1067,136.5v0.2h0.4v-0.6L1067,136.5z M1068.4,126.2v0.6l0.4,0.4l0.2-0.8l-0.2-0.2H1068.4z"/>
				<path d="M1106.2,91.5c0.7,0.7,2.1,1.3,4.1,1.8c0.3,0,0.4-0.3,0.4-1l1.8,0.4c0.2-0.5,0.4-0.8,0.6-0.8c1.1,0.9,2.2,1.5,3.5,1.8
					l0.6,0.4c0.4,0,0.6-0.4,0.6-1.2l0.8-0.2l0.8,2.3h0.2l0.2-0.2c2.7,0.7,4.1,1.6,4.1,2.5c0.3,0.5,1,0.9,2.1,1.2l0.4,1l-0.2,1.6
					c0.6,1.8,1.6,2.7,3.1,2.7l0.2,0.2v0.2l-0.4,0.8l0.8,1.8h-0.2l1.6,2.9c0,1.5,0.5,2.5,1.4,3.1v0.4h0.2l-0.2,0.2v0.4l0.6,1l-1,4.1
					l1,2.7l-0.4,1.6v2.1l-0.2,0.2l0.2,0.6c0,0.9-0.5,1.7-1.6,2.3c-0.2,1-0.6,1.7-1.2,2.1c0,0.7-0.5,1.3-1.6,1.9
					c0,0.3-0.6,0.8-1.8,1.4l-1.2,4.1h-1c-0.5,0.5-1.6,1.1-3.5,1.9c0,0.7-0.6,1.3-1.9,1.8c-0.1,0.3-0.6,0.6-1.8,1l-1.2-0.2h-1
					c-0.2,0.5-1.5,0.8-3.7,1l-0.6,0.4l-1-0.2l-1,0.2c0-0.5-0.7-0.8-2.1-1l-0.8,0.2l-1-0.4l-1.4,0.2c-1-1.7-1.9-2.5-2.7-2.5
					c0-0.4-0.3-0.7-1-1l-1.6,0.4c-0.3-0.9-0.5-1.4-0.8-1.4v0.2c-0.6-0.2-1.2-0.6-1.8-1.4c-0.6,0-1-0.5-1.4-1.4
					c-1-0.9-2.1-1.4-3.3-1.4l-0.4-0.4l0.2-1.2c-0.4-0.6-0.8-1.9-1.4-3.9c-1.3-1.1-1.9-2.6-1.9-4.7l-1.2-1l0.2-0.6l-0.2-0.2v-0.2
					l0.8-3.1l-0.8-3.1v-0.2l0.2-1l-0.2-1.2v-0.2l1.9-2.5l-0.2-0.2v-0.2l0.4-1l-0.2-0.2v-0.2c0-1.1,0.6-2,1.8-2.7l0.4-0.8l0.2,0.2
					h0.2c1-0.2,1.6-0.5,1.6-0.8c-0.4-0.6-0.6-1.2-0.6-1.8l1.2-1.6l-0.2-1.2v-0.2c0.9,0,1.4-0.3,1.4-1c1,0,1.6-0.6,1.6-1.9
					c0.5,0,0.8-0.3,0.8-0.8h0.8c0.6,0,1.2-0.5,1.6-1.4l0.8-0.4l0.8,0.6l1.6-1l0.4-1.2l-0.2-0.6l1.2-1.2h0.6c0.1,0.8,0.3,1.2,0.6,1.2
					L1106.2,91.5z M1087.9,130.8h0.4l0.4,0.4l-0.4,0.4h-0.4V130.8z M1106.8,101h-0.4c0-0.3-0.6-0.6-1.8-0.8c0,0.4-0.3,0.6-0.8,0.6
					c0,0.8-0.1,1.2-0.4,1.2l0.2,1l-0.2,0.8h-0.2c-1.2-1.2-2-1.8-2.3-1.8l-1.2-0.4c-0.7,1.6-1.6,2.3-2.7,2.3
					c-0.6,0.7-1.2,1.1-1.8,1.2c-0.9,1.1-1.4,2-1.4,2.7l0.2,1.6c0,0.3-0.4,0.7-1.2,1.4l-0.4,1.2l0.2,1.4l-1,4.1v3.5
					c0.6,0.6,1,1.5,1,2.5c-0.5,0.1-0.8,0.4-0.8,0.8l0.4,1.2l-0.2,0.2c1.1,1.2,1.7,2.2,1.8,2.9c0,0.3,0.6,0.8,1.9,1.8
					c0.3,0.8,1.2,1.9,2.9,3.3c0,0.9,0.8,1.5,2.3,1.8c0,0.4,1.1,0.7,3.3,1c0.1,0.8,0.5,1.2,1.2,1.2v-0.2c0-0.4,0.3-0.6,0.8-0.6
					l0.4,1.2h0.2c0.6-0.5,1.1-0.8,1.6-0.8l0.2,0.6h0.6l2.1-0.8l0.2-0.2h1.2l1.2-0.2l1,0.2h0.2c0.8-0.5,1.9-1.4,3.1-2.7
					c0.5,0,1-0.5,1.4-1.6c1.4-0.2,2.1-0.4,2.1-0.8c0.5,0,1-0.8,1.4-2.5l0.2-0.2v-0.6c0-0.3-0.2-0.4-0.6-0.4l-0.2-0.2v-0.4
					c0.7,0,1.9-1.1,3.5-3.3l1.9-5.3c-0.3,0-0.5-0.8-0.6-2.5l-0.8-2.9l-1.2-1.9c-0.2,0-0.5-1.2-0.8-3.7c-1.3-0.8-2.1-1.5-2.3-2.1
					c-1.2-0.3-2.1-1.1-2.9-2.3c-0.7,0-1-0.3-1-1l-1.2-1v0.2l-1.6-0.4c0,0.2-0.6,0.5-1.8,0.8c-0.5-1.6-1.3-2.3-2.5-2.3h-0.6l-0.8,0.2
					l-1.2-0.4h-0.2C1108.3,99.9,1107.6,100.5,1106.8,101z M1099.8,102l0.4,0.4h-0.4V102z"/>
				<path d="M1176.9,92.6h0.4c0.6,0,1.2,0.4,1.8,1.2c1.3,0,2.6,0.8,3.7,2.3c0.4,0,0.8,0.3,1.4,1c0.3,0,0.8,0.5,1.8,1.4
					c0.8,0,1.2,0.6,1.2,1.8c0,0.9,0.5,1.6,1.4,1.9l0.4,1.8l-0.2,1.6l0.2,0.8l-0.2,0.6l0.4,1.6c0,0.7-0.3,1.6-1,2.5l-1.4-0.2h-0.2
					l-0.8,0.8c-0.4,0-0.7-0.5-1.2-1.6c-1,0.5-2.2,0.8-3.7,1l-0.2,0.2h-0.2c-1.2-0.7-1.9-1.6-2.3-2.5l0.2-1.2l-0.6-0.6
					c1-1.1,2-2.4,2.9-3.9c0.5,0,0.8-0.4,0.8-1.2v-0.8c-0.8-0.6-1.2-1.3-1.2-2.1l-2.7-0.4h-0.6c-0.8-0.8-1.5-1.4-2.1-1.6v-0.4
					c-0.9,0-1.4,0.4-1.4,1.2c0,0.3-0.7,0.5-2.1,0.6l-0.2-0.6h-0.4c-0.7,1.8-1.7,2.7-2.9,2.7l-0.4,0.8v0.2l1,0.8h0.2l1.9-1.4l0.4,0.4
					c0,0.5-0.5,1.1-1.6,1.8l-0.2-0.2h-0.6c-0.2,0-0.5,0.5-0.8,1.4c-0.4,0-0.6,0.3-0.6,0.8c-0.4,0-0.6,0.2-0.6,0.6h-0.2l-0.4-0.4
					v-0.6l0.4-1.4l-0.2,0.2h-0.2l-0.2-0.2l0.2-0.2v-0.4l-0.4-0.4v0.2l-0.2-0.2h-0.2c-0.3,0-0.4,0.2-0.4,0.6c-0.4,0-0.6,0.3-0.6,0.8
					c-1.3,0.1-1.9,0.6-1.9,1.4l0.2,0.6h-0.4l-0.8-0.6c-0.9,0.6-1.5,1.5-1.8,2.7l0.2,0.2h0.2l1-0.4l0.2,0.2c0-0.4,0.5-0.6,1.4-0.6
					l0.8-0.4c0-0.6,0.5-1.1,1.4-1.6l0.6,0.2c0,1.3-0.5,1.9-1.6,1.9c-0.1,1.4-0.7,2.1-1.8,2.1c-0.1,0.4-0.4,0.7-1,1h-0.2v-1.2h-0.2
					l-0.6,0.4l-1.2-0.8h-0.2c-0.3,0-0.5,0.3-0.6,1l0.2,1l-0.2,0.2v0.2l0.2,0.8h1l0.8-0.6h0.2l0.6,0.6v0.8l-0.8,1v1l0.6,2.3v0.8
					l-0.4,0.8h-0.2l-1.4-2.1v-0.4l0.8-1c-0.3,0-0.5-0.3-0.6-0.8h-0.4c-0.3,0-0.7,0.9-1.2,2.7l0.4,1.4l0.2-0.2h0.2
					c0.5,0,1.1,0.6,1.9,1.8c0.5,0,0.9,1.2,1.2,3.5l0.2,0.2l-0.4,2.1h0.4v0.2l-0.4,0.6l0.2,0.8l-0.4,1.2h0.2l-0.4,1.9l0.8,1.8
					l-0.2,0.2v2.3l0.4,0.4l0.6-0.2c0.4,1,1,1.6,1.8,1.6l0.2,0.2h0.4c0-0.5,0.3-0.8,0.8-1l0.8,0.2l0.4-0.4l0.6,0.2
					c0.4-0.4,0.6-0.8,0.6-1.2h0.4c0.4,0,1.1,0.4,2.3,1.2l0.6-0.2v0.2c0.4,0,1.5,1.2,3.3,3.5c0.3,0,0.7,0.5,1.4,1.6v0.2
					c-0.9,1-1.4,1.8-1.6,2.5c-0.9-0.6-1.8-1-2.7-1l-0.4-0.4l-1,0.6l-0.4-0.4h-0.2l-1.6,0.4l-0.2-0.2h-0.2l-0.8,0.4l-1.6-0.8
					c0,0.5-1,0.8-2.9,1l-0.2,0.2l-0.2-0.2h-0.2l-0.6,0.4l-0.2-0.2l-1.4,0.2l-1-0.2c0,0.5-0.2,0.8-0.6,0.8h-1.2l-1.2-1l-0.6-0.2v0.2
					l-0.2,0.2l-1.2-0.4l-0.4,0.4h-1.6l-1.4-0.2l-1,1.2l-0.8-0.4l-1.6,0.4c0-0.4-1-0.8-2.9-1.2c0,0.5-0.2,0.8-0.6,0.8h-0.2l-2.7-2.5
					c-0.5-1.2-0.8-2.5-1-4.1c0.4-1.3,1.2-1.9,2.5-1.9c0,0.3,0.4,0.4,1.2,0.4v0.2l1.8-0.4l2.5,0.8c1.3-0.1,2.1-0.3,2.3-0.6l0.2,0.2
					h0.2l0.8-0.2l0.6,0.2v-0.4h1c0.3,0,0.5-0.5,0.8-1.6l0.8-0.2l-0.4-1.2l0.4-1.9l-0.4-1.8l0.2-3.5c-0.3,0-0.4-0.4-0.4-1.2l-0.2-0.2
					c-0.1-0.8-0.2-1.2-0.4-1.2l0.8-2.9l-0.4-1.4c0.2-2.3,0.6-3.7,1.2-4.3v-0.4l-0.6-1.6l0.2-3.1l-0.2-0.6l0.2-0.2v-0.2l-0.2-1.6
					l1.2-3.9v-1.2c-0.4,0-0.6-0.3-0.6-1l-1-0.4l-0.4,0.4l-1.8-0.6c0,0.3-0.2,0.4-0.6,0.4l-2.5-0.2l-0.8,0.6c-0.9,0-1.4-0.4-1.4-1.2
					v-0.8l-3.3,1.6c-1.4-0.5-2.1-1-2.1-1.4l-0.6-1.6c0-1.7,0.5-3,1.4-4.1l1.9,0.6h0.2l1.6-0.2c1.5,0.5,3.5,0.8,5.8,1v-0.2l0.2,0.2
					h0.2c0.6-0.5,1.3-0.7,2.3-0.8l0.2,0.2h0.2l0.2-0.2h0.2l1.4,0.6l0.2-0.2h0.2c1.8,1.4,2.7,3,2.7,4.7l1.8,1.4l0.2,0.2v0.2
					c1.4-0.4,2.1-1.1,2.1-2.1c2.2-1.6,3.3-3,3.3-4.3h0.4l0.2,0.2h0.2l0.4-0.4h0.4c0.1,0.6,0.3,1,0.6,1l0.2-0.2v0.4h0.2
					c0.2,0,0.4-0.3,0.6-0.8l0.2-0.2h0.2l0.6,0.6h0.8l0.6-0.6l2.5,1h0.2v-0.2l-0.2-1C1175.1,93.1,1175.9,92.6,1176.9,92.6z M1157,119
					l-0.8,1.8h0.2l-0.4,1.6l0.8,0.6l-0.2,0.2v0.4h0.2c0.3,0,0.4-0.3,0.4-1c0.5-0.1,0.8-0.5,0.8-1l-0.6-1l0.4-0.4
					c-0.2-0.8-0.4-1.2-0.6-1.2H1157z M1173.2,100.5h0.6l0.2,0.6l-0.6,0.4l-0.4-0.4L1173.2,100.5z M1174.5,95.5v0.4h0.2v-0.4H1174.5z
					"/>
				<path d="M1198.6,93.8h0.2l2.1,0.4l0.6-0.2v0.2l0.2-0.2h0.4c0.5,0,1,0.3,1.6,0.8h0.2l0.6-0.4h0.4l1.9,0.4l0.2-0.2v0.2l1.8-0.6
					c1.5,0.1,2.7,0.5,3.5,1.2l2.1-0.6l1,0.4l1.2-0.2l0.8,0.4l1-0.2c0.8,0.3,1.3,0.6,1.4,1l0.2-0.2h0.4c0,0.5,0.6,1.1,1.8,1.8
					l0.2,0.2v0.2l-1.2,0.8l0.4,1.4l-0.4,4.3l0.6,1.6l-0.2,3.7l0.4,0.8l-0.2,3.1v0.4l0.4,1.9l-0.4,1.9c0,0.9,0.8,1.5,2.3,1.8v2.5
					l-0.4,0.6v0.4l0.4,0.6v0.4c-1.4,0.8-2.1,1.6-2.1,2.3l0.4,3.3l-0.6,2.3c1,0.5,1.6,1.4,1.6,2.5l5.5,1.2h0.2l1.2,1.4h0.4
					c0.5,0,1-0.8,1.6-2.5h0.2l0.4,1.2h1.4l0.2-0.2l1.9,0.4c1-0.8,2-1.2,2.9-1.2l0.4-0.4h0.4c1.3,1,1.9,1.9,1.9,2.7v1.9h-0.2
					l-0.6-0.2v0.2c0,0.6-1,1.4-3.1,2.3l-0.2-0.2l-3.3,0.8h-0.4l-1.2-0.2c-0.9,0.4-1.8,0.6-2.7,0.6c-0.1-0.4-0.5-0.6-1.2-0.6l-1.6,1
					l-1.6-0.6l-1.6,0.2v-0.2l-2.1,0.8l-1.6-0.6c-0.3,0.6-0.8,1-1.6,1l-1.2-0.2c-1.2,0.6-1.8,1-1.8,1.4h-0.4c0-0.5-0.5-0.9-1.6-1.2
					l-1,0.2h-0.6l-0.8-1.2l-0.6-0.4h-0.4c-1.2,0.7-2.1,1.5-2.7,2.3l-0.8,0.2c0-1.2-0.9-1.8-2.7-1.8h-0.2v0.2l-1-0.4
					c-0.9,0.6-1.7,1-2.3,1c0-0.5-0.6-0.9-1.9-1.2h-0.4l-0.2,0.2h-0.2l-1-1.4l0.2-1l-0.2-1.6c0-1.7,0.9-2.9,2.7-3.5
					c0.3-0.6,0.5-0.9,0.8-1h0.6c0.7,0.5,1.4,0.8,1.9,0.8l0.6-0.2l0.6,0.6l4.7-1.2c0,0.6,0.9,1.2,2.7,1.8c1.9-0.5,2.9-1.3,2.9-2.5
					l-0.4-1.2l0.6-2.7l-0.2-1.6v-0.2c0.6,0,1.1-1,1.6-2.9c-0.4-0.1-0.6-0.6-0.6-1.6l0.2-2.1l-1.2-3.1v-1l0.2-0.8l-0.2-0.2V116
					l1.4-3.7c0-2.5-0.2-4-0.6-4.5l0.6-1.2v-1.2c0-0.6-0.1-1-0.4-1l0.2-1c0-1.7-0.9-2.5-2.7-2.5l-0.2,0.2h-0.2l-1.6-0.4
					c0,0.4-0.3,0.7-0.8,1h-1.2c0-0.7-0.4-1.3-1.2-1.6h-0.2c0,0.5-0.2,0.8-0.6,0.8l-0.6-0.6c-0.9,0.6-1.9,1-2.9,1l-0.8-0.4l-0.2,0.2
					h-0.2c-0.5,0-1.1-0.3-1.8-0.8l-0.2,0.2c-1.7,0-3-0.7-3.7-2.1v-0.2l0.2-0.8l-0.4-1.2C1196.8,95.7,1197.4,94.8,1198.6,93.8z
					 M1214.5,74h2.1l0.6,0.4h0.4l1.2-0.2c0.4,0,1.1,1,1.9,2.9c0.9,0,1.4,1.5,1.6,4.5v0.2l-1.2,3.1c-0.2,0-0.8,0.8-1.8,2.3l-0.4,0.4
					c0,0.5-0.5,0.8-1.6,0.8v0.2l-0.2-0.2c-0.4,0-1.2,0.3-2.3,1l-0.2-0.2V89l-0.2,0.2h-0.2c-0.6,0-1.8-0.8-3.3-2.3
					c0-0.4-0.5-0.9-1.6-1.4l-1.2-1.9l0.2-1.2c0-0.3-0.4-0.5-1.2-0.8c0-0.5-0.1-0.8-0.4-0.8c0.3-0.9,0.7-1.4,1.2-1.4v-1
					c0-0.5,0.3-1,1-1.6c0-0.4,0.6-1,1.9-1.8c0-0.6,0.6-1,1.8-1l1.2,0.4L1214.5,74z M1213,82.9v0.4h0.4v-0.4H1213z M1213.6,83.7
					l1.2,1.4h0.4l0.4-0.4c0-0.5-0.4-0.9-1.2-1.4h-0.4L1213.6,83.7z"/>
				<path d="M1272.8,95.8l0.2,0.2h0.2l0.8-0.2l1,0.6l0.6-0.4c0,0.3,0.7,0.9,2.1,1.9c0,0.5,0.6,1,1.9,1.6l1.8-0.4
					c0.7,0.3,1.9,1.3,3.7,2.9c1.4,0.6,2.1,1.5,2.1,2.7c1.4,0.5,2.1,1.3,2.1,2.3h0.4v0.2l-0.4,1.6h0.2l0.6-0.2v0.2l0.8,2.3l-0.8,1.2
					l0.4,0.4l-0.2,2.3l0.4,1.9c-1.2,0.3-1.8,0.8-1.8,1.8l-0.6,0.4h-0.2c-0.4,0-1.1-0.3-2.1-1l-0.2,0.2h-0.2l-1.2-0.4l-0.2,0.2
					c-0.2-0.5-0.4-0.8-0.6-0.8h-1c-0.5,0.6-1,0.9-1.4,1c0-0.3-0.8-0.6-2.3-0.8c-0.5-0.6-0.8-1.1-0.8-1.6c0.4,0,0.9-0.3,1.6-1l1.4-1
					c0.8,0,1.2-0.2,1.2-0.6l0.2,0.2h0.4c0.2-0.9,0.5-1.4,0.8-1.4l0.2,0.2l0.6-2.5l-0.6-1.4c-0.7,0-1.1-0.8-1.2-2.5
					c-0.7-1.2-1.2-2.4-1.4-3.5c-0.3,0-0.4-0.3-0.4-0.8c-1-0.4-1.6-1-1.6-1.8h-1c-1,0-1.6-0.3-1.6-1h-0.6l-0.8-0.2l-1.8,0.8h-0.4
					l-0.8-0.4l-0.6,0.2v-0.2c0-0.4-0.1-0.6-0.4-0.6l-1,0.2l-0.4-0.4c0,0.3-0.5,0.6-1.6,0.8l0.2-0.2v-0.2l-2.1-0.6
					c-1.1,1.2-2.1,2.1-3.1,2.5h-0.4v-0.4h-0.2c-0.3,0-0.4,0.2-0.4,0.6h-0.2l-0.2-0.2l-0.2,0.2h-0.4l-0.8-0.6h-0.2
					c-0.6,0.8-1.4,1.2-2.3,1.2c0,0.4-0.8,1.1-2.3,1.9l-0.2,0.2c-0.4,0.3-0.9,1.2-1.4,2.7c-0.9,0.2-1.4,0.5-1.4,1l0.2,1l-0.2,1.2
					l0.6,3.5l-0.4,0.4c0.6,0.8,1.5,1.4,2.7,1.8c0,0.3,0.3,0.5,0.8,0.6c1.1-0.8,1.9-1.2,2.5-1.2c0,0.3,0.2,0.4,0.6,0.4l1.4-0.2
					c0.1,0.5,0.5,0.8,1.2,0.8c0-0.5,0.4-0.8,1.2-0.8h0.2l1.8,1.2l5.6-1.2h0.2c0.6,0.6,1.1,1,1.6,1l0.6,0.8v0.4
					c-0.5,0-0.8,0.4-0.8,1.2c-1.2,0.1-2.2,0.5-3.1,1h-1l-0.8-0.4l-0.6,0.2l-0.2-0.6l-1.2,0.4c-0.5-0.2-0.8-0.4-0.8-0.6l-1,0.6h-0.4
					v-0.4l-2.9,1l-3.3-0.6l-0.2,0.2h-0.2l-0.6-0.4l-2.7,1l-0.2-0.2v1h-1.2l0.2,1l-0.4,0.4c0.3,0,0.6,0.8,1,2.5l-0.2,0.2v0.2l1.6,4.5
					v0.2h-0.4v0.4c0.3,0,0.6,0.2,1,0.6l0.2-0.2h0.2c0.7,1.4,1.5,2.2,2.1,2.3c0,0.2,0.6,0.7,1.9,1.6l2.1,1.6c0.6,0,1-0.1,1-0.4
					c0.8,0.2,1.6,0.9,2.3,2.1h0.2c2.1-0.4,3.6-0.8,4.3-1.4h0.6l0.8,0.6h0.2c0.3,0,0.5-0.8,0.8-2.3l0.2-0.2h0.2l0.4,0.4l1-0.4
					l1.9,0.2c0.4-1,1.5-1.6,3.3-1.6l0.2,0.2c1.6-2,2.7-3.5,3.3-4.7v-0.4l-0.6-0.6l0.6-1.6v-0.8h-0.4v-0.4h0.4l0.2,0.2l0.2-0.2h1.8
					c0-0.4,0.3-0.6,0.8-0.6l0.4,0.8l1-0.2h1.4c0.1,0.5,0.5,0.8,1.2,0.8l0.4,0.8l0.4,1.2v0.2l-0.4,0.6c0.4,0.1,0.6,0.5,0.6,1.2v0.2
					c-0.4,1.5-0.8,2.4-1.2,2.7l0.2,0.2v0.2c0,0.8-1.4,2.4-4.1,4.7l-1.6,0.8c-0.4,1.1-1.1,2.2-2.3,3.1l-0.8-0.4l-2.3,1.6
					c-0.4,0-0.7,0.2-1,0.6l-1.6-0.6h-0.4l-0.2,0.2h-0.2l-0.4-0.4h-0.2c0,0.4-0.6,0.6-1.8,0.6l-1.2,0.6v-0.2l-1.4,0.4l-1.4-0.2
					l-1.6,0.6c0-0.6-1.1-1-3.3-1.2l-0.2-0.2l-1.4,0.2l-0.8-0.2l-1,0.2c-0.9-0.9-1.8-1.4-2.5-1.4c-0.4-1-1-1.6-1.8-1.6
					c0-0.7-0.3-1.5-1-2.3l-1,0.2c-0.7-1.3-1.3-1.9-1.8-1.9c-0.3,0-0.4-0.3-0.4-0.8h-0.8v-0.2l0.2-0.8l-0.4-1l-1,0.2l-0.2-0.2
					c-0.3,0-0.4-0.5-0.4-1.6h-0.4c0-1.5-0.5-2.8-1.4-3.9l0.2-1.9h-0.2c-0.3,0-0.5-0.6-0.6-1.8l0.2-0.6l-0.4-1.6v-0.8
					c0-0.6,0.2-1,0.4-1l-0.8-3.9h0.2l-0.4-1.2l0.4-0.8l-0.2-1.8l0.2-1.2l-0.2-1c0.4,0,0.8-0.9,1.4-2.7c0.6-0.4,1-0.9,1-1.8
					c0.7,0,1.2-0.3,1.6-1h0.4l0.6,0.2l0.2-0.2v-1l-1,0.2V103c0.5-0.6,1.2-1,2.1-1l1.4-1l-0.2-0.6c0.3,0,0.4-0.3,0.4-1l2.5-1.9l1,0.2
					v-0.2l1.2,0.6h0.2l1-0.8h0.2l1,0.2c0-0.4,0.2-0.6,0.6-0.6l0.2-0.2v-0.2l0.2,0.2h0.2l1.4-0.2l2.3,0.6c1.2-0.3,1.8-0.6,1.8-0.8
					l1.9,0.4C1270.7,96.3,1271.6,96,1272.8,95.8z M1249.9,115.4l1,0.4c1.2,0,1.8-0.4,1.8-1.2l-1-0.6h-0.2
					C1250.4,114.7,1249.9,115.2,1249.9,115.4z M1251.6,112.7v0.4h0.2v-0.4H1251.6z M1252.4,103.9v0.2h0.4v-0.2H1252.4z
					 M1252.4,112.3v0.4l0.4,0.4h0.2l-0.2-0.8H1252.4z M1271.5,136.8v0.2l0.4,0.4v-0.6H1271.5z M1276.2,116.6c0.7,0,1.3,0.4,1.8,1.2
					l-1.9,0.6l-0.6-0.4l-1.4,0.4v-0.6l1.6-1L1276.2,116.6z M1275.4,115h0.4l0.4,0.4v0.4l-0.2-0.2h-0.2l-0.2,0.2l-0.2-0.2V115z"/>
				<path d="M1343.2,89.6c1.1,1.4,2.1,2.2,2.9,2.3l0.8-0.2l0.8,0.2l1.9-0.2c0,0.4,0.8,0.6,2.5,0.8l0.8-0.8c0.3,0,0.5,0.6,0.6,1.9
					l-0.2,0.8l0.2,1.9v0.4l-0.4,0.6l0.6,2.3v1c0,0.7-0.5,1.8-1.6,3.3l-0.2,0.6l0.4,1h-0.2c0,0.4,0.2,0.6,0.6,0.6l0.2,0.2v0.2
					l-0.2,0.8c0.3,0.4,0.5,1.2,0.6,2.3c-1.6,1-2.3,1.6-2.3,1.8l-2.1-0.8l-2.1,0.4c-0.8-0.7-1.2-1.3-1.2-1.8l-1-1.4
					c-0.4,0-0.6-0.1-0.6-0.4l0.6-0.2v-1l-1-1h-0.8l-0.4,0.8c0,0.7,0.2,1.3,0.6,1.8l-0.2,0.2l0.2,0.6c-0.1,1.2-0.4,1.8-0.8,1.8
					c-0.7,0-1.1-0.2-1.2-0.6l-0.2,0.2h-1c-0.6-0.3-1.2-0.9-1.6-1.9l-0.6-0.6v-1.4c-0.3,0-0.7-0.4-1.2-1.2l0.2-1v-0.2
					c-0.2-0.9-1.2-1.4-2.9-1.4c-1.1-1.1-1.8-1.7-2.1-1.8l-1.2,0.2l-0.8-1.2c0-0.8-0.6-1.2-1.9-1.2c-0.1,0.5-0.6,0.8-1.6,0.8
					c-0.3,0.7-1.1,1.7-2.3,2.7c0,0.6-0.6,1.2-1.9,1.8c-0.6,0.5-1,1-1,1.8l-1,1.2v0.2l0.2,0.8l-0.2,0.8l1.2,2.1
					c0.3,0,1.4,0.6,3.3,1.9l1.6-0.2l2.9,0.6l4.1-0.8c0.6,0,1.5,0.6,2.9,1.9l1,0.2l0.8-0.2l1.2,0.6l2.5-0.4h0.4
					c0.5,0.4,1.6,0.8,3.1,1.2l1.8,1.6l0.4,0.6c0.6-0.5,1.2-0.8,1.9-0.8c0-0.4,0.2-0.6,0.6-0.6c1,0,2,0.8,2.9,2.5
					c0,0.3,0.6,0.9,1.8,1.9c0.3,2.1,0.7,3.1,1.4,3.1c0.4,0,0.8,0.3,1.2,1v0.2l-0.6,0.6v-0.4h-0.4v0.2l0.2,0.6
					c-0.3,0-0.5,0.5-0.6,1.4l0.4,1.4c-0.5,0-0.8,0.8-1.2,2.3l0.2,0.8c0,0.9-0.7,1.7-2.1,2.3c-0.1,1-0.5,1.6-1.2,1.6
					c0,0.3-0.3,0.6-1,0.8c0,0.9-0.7,1.5-2.1,1.9c-0.4,0.4-0.7,1.2-1,2.5c-0.5,0.6-0.9,1-1.4,1l-0.8-0.4l-4.9,1.8l-1.8-0.6l-2.5,0.2
					c-0.6-0.4-1.3-0.6-1.9-0.6l-1,0.2c0-0.5-2-0.8-6-1l-0.2-0.2l-2.3,0.8l-1.8-0.2c-1.1,0-1.9,0.4-2.3,1.2l-1.4-0.8
					c-0.4,0.1-0.6,0.5-0.6,1.2h-0.2l-1-0.2l-0.6,0.8h-0.4c-0.8-1-1.8-1.8-3.1-2.5c-0.2-0.7-1.1-1.8-2.7-3.3c-0.3,0-0.9,0.7-1.9,2.1
					c-0.5,0-1.5,0.5-3.1,1.4h-1c-0.8,0-1.4-1.3-1.8-3.9c0.4-2.2,1-4.5,1.8-6.8l-1-3.3v-0.6l0.2-0.2l-1-3.3c0.3-1.1,0.9-2.1,1.8-3.1
					l1.6-0.2l1.2,1.2l0.2-0.2h0.2c1.3,1.2,2.1,2.4,2.5,3.5c0.4,0,1.2,0.3,2.3,1c0.9-0.4,1.8-1.1,2.5-1.9h0.2
					c0.9,1.2,1.8,2.1,2.5,2.7v0.4l-0.2,1c1.4,0.5,2.1,1.3,2.1,2.5c0.9,2.1,1.6,3.1,2.1,3.1l2.7,0.6l0.2-0.2l3.1,1.6l0.6,0.2
					c0.8-0.4,1.6-0.6,2.3-0.6l1.6,0.2c0.5-1,1.4-1.8,2.9-2.3c0-0.3,0.5-0.8,1.6-1.4c0-0.6,0.6-1.3,1.6-2.3c0-1.2,0.4-1.8,1.2-1.8
					c0.4,0,0.6-0.1,0.6-0.4l-0.2-0.6l0.2-1c-0.5-1.6-1.4-2.7-2.5-3.3c-0.2-0.9-1.1-1.4-2.5-1.4l-0.4-0.4v-0.2h-0.2l-1.2,0.8
					l-4.9-3.3l-0.2-0.2l-2.7,0.6l-1-0.8c-1.5,0.2-2.3,0.4-2.5,0.6h-0.6c-0.3,0-0.4-0.2-0.4-0.6l-0.2-0.2h-0.2l-0.4,0.4l0.2,0.2
					l-0.2,0.6h-0.6l-1-0.2c-1.4,0.2-2.1,0.4-2.1,0.6c-0.5-0.2-0.9-0.5-1.2-1l0.2-0.8c-1.6-0.7-2.3-1.2-2.3-1.4
					c0-0.9-0.8-1.5-2.5-1.8c-0.5-0.7-1.4-1.3-2.5-1.6c0-0.3-0.5-0.8-1.4-1.4c0-0.9-0.5-2.7-1.6-5.3l-0.4-1.2c0-1.1,0.6-2.4,1.9-3.9
					h0.4c0,1,0.3,1.6,0.8,1.6h1v0.6h0.4v-1.4c-1.2-1.4-1.8-2.7-1.9-3.9l0.2-0.2h0.2l1.4,0.2l0.4-0.4h1c0.5,0,0.8,0.9,1,2.7
					c-1.4,1.7-2.1,3-2.1,3.9v0.2l1.2,3.1l-0.2,0.8c1.1,0.6,2,1.5,2.5,2.7c0.4,0,0.9,0.4,1.6,1.2l0.6-0.6v-0.4
					c-0.8-1.9-1.5-3-1.9-3.3l0.6-2.5l-0.2-1.4l1.4-4.9c-0.1-0.9-0.4-1.7-0.8-2.3c0-1.6,0.8-2.3,2.3-2.3c0-1.6,1.4-2.3,4.1-2.3
					c0-0.3,1.3-0.5,3.9-0.6v0.2l1.2-0.6h0.2c0.9,0.7,1.6,1,2.1,1l0.2-0.2h0.2c1,0.3,1.6,0.6,1.6,0.8l1.2-1.2h1.6
					c1.4,1,2.4,1.6,3.1,1.6c1-0.2,2.1-0.8,3.3-1.9c1.6,0,2.6-0.4,2.9-1.2H1343.2z M1345,125.7l-0.2-0.2h-0.2c-0.2,0-0.5,0.6-0.8,1.8
					c-0.3,0-0.6,0.7-1,2.1l0.4,1.6l-0.2,1.8h0.2c0.8-0.2,1.4-0.5,1.6-0.8l1,0.2h0.4l1.8-2.9v-0.6l-0.4-1.2h0.2l-0.2-0.2l0.2-1v-1
					c0-0.9-0.5-1.4-1.4-1.4h-0.6C1345.5,123.9,1345.2,124.5,1345,125.7z M1345.2,114.2l0.4,0.4h-0.4V114.2z"/>
			</g>
		</g>
	</g>
	<g>
		<g>
			<g>
				<path d="M40.3,94.8V95l0.2-0.2h1.4c0.6,0,1.4,0.3,2.5,0.8c0.4-0.3,1.3-0.5,2.9-0.8v0.8h0.4l1-0.8h0.4c1,0,1.5,0.2,1.6,0.6V96
					l-0.2,0.2v0.2H51c0-0.4,0.5-0.9,1.4-1.4c0.6,0,1.2,0.2,1.8,0.6l0.8-0.2c1,0.3,1.7,0.8,1.9,1.6v0.2c0.3,0,0.4-0.3,0.4-0.8h0.4
					v0.4h0.2l0.6-1c0.8,0.1,1.6,0.4,2.1,1l0.6-0.4v0.4h0.2c0-0.5,0.5-0.8,1.4-0.8c0-0.2,0.3-0.4,0.8-0.6l1,0.2L65,95l1.2,0.2
					l0.6-0.2l0.6,0.4l0.2-0.2h1c0.9,0.1,1.3,0.3,1.4,0.6l0.2-0.2h0.8l0.2,0.2c0.4,0.8,0.8,1.2,1.4,1.2l0.2,2.3l-1.8,1.2
					c0,0.5-0.6,1.1-1.9,1.8c-0.3,0.2-0.7,0.9-1.2,2.1c-1.8,1.2-2.7,2.3-2.7,3.3c-0.4,0-0.6,0.2-0.6,0.6l-0.8,0.4l-1.4-0.2
					c-0.9,0.3-1.4,1-1.4,2.1c-0.3,0-0.5,0.8-0.8,2.3c-0.3,0-0.4,0.4-0.4,1.2c-0.8,0-1.3,0.3-1.6,1l-2.5,1.4h-0.2v0.4l0.4,0.6v0.6
					c-0.9,0.9-1.4,1.5-1.4,1.8l-1,0.4v1.2H53l-1-0.6l-0.2,0.2h-0.6l-0.6-1.6h-0.4c0,0.4,0.3,1.1,1,1.9v0.4c-0.2,1.3-0.9,2.5-2.1,3.7
					l0.2,0.8c-0.2,0.5-0.5,0.9-1,1.2h-0.4l-0.6-0.4h-0.2l-0.6,2.5h-1.2l-2.5,2.5l-0.2,1.4c-0.4,0-0.9-0.3-1.6-0.8l-0.2,0.2
					c0,0.5-0.3,0.8-1,0.8l-0.2,0.2l-0.2,0.8h-0.8v0.2c0,0.2,0.5,0.4,1.4,0.6l0.6,0.8v0.6l-0.2,0.2v0.2l1,0.2h0.6l0.2-0.2l0.2,0.2
					l1-0.2H46l1,1h0.4c0.1-0.5,0.3-0.8,0.6-0.8h1.6l0.2,0.2h0.2v-0.2l2.5,1h0.4l1.2-1c1.1,0,2.1,0.2,3.1,0.6
					c2.1-0.1,3.1-0.3,3.1-0.6l1,0.4v-0.2c0.4-0.8,1-1.2,1.8-1.2c0,0.4,1.4,0.9,4.1,1.6c0-0.3,0.7-0.6,1.9-1.2l-0.2-1.4
					c0.6,0,1-1.1,1-3.3l-0.2-0.2l0.4-1.4l-0.6-2.3l0.2-1l-0.4-0.6c0-0.4,0.2-0.6,0.6-0.6l0.2-0.2v-1.4c0-1.6,0.8-2.3,2.5-2.3
					c0.5,0,1,0.6,1.6,1.9l-0.2,0.6l0.2,1.6l-0.2,0.6c0.1,1.1,0.3,1.8,0.6,2.1v2.7c0.3,0.7,0.8,1,1.4,1l-1.2,1.2l0.2,0.8
					c-0.4,3-0.9,4.5-1.6,4.5c-0.5,0.8-0.8,1.5-0.8,1.9c-0.5,0-0.9,0.6-1.4,1.8l-1.4-0.8l-0.4,0.4h-0.4v-0.4
					c-1.7,0.4-2.5,0.8-2.5,1.2l-0.4,0.6l-2.5-1h-0.2v0.4h-0.4l-0.6-0.4h-1.8c0,0.4-0.1,0.6-0.4,0.6l-1-0.2l-0.2,0.2l-0.2-0.2v-0.2
					l0.2-0.2v-0.2h-0.2l-0.6,0.8l-0.2,0.2h-0.2l-0.2-0.2h-0.2l-0.6,0.2c0-0.3-0.3-0.4-1-0.4l-0.2-0.2v-0.2l-1,0.2l-0.6-0.4l-0.2,0.2
					h-0.4c-0.6,0-1.1-0.2-1.4-0.6l-0.6,0.4l-3.3-0.4l-0.4,0.4h-0.2l-1-0.2l-0.8,0.8h-0.2l-0.2-1c-0.9,0.9-1.8,1.4-2.7,1.4l-1.2-1.2
					c-0.5,0-1.2,0.3-2.3,1h-0.2l-0.2-0.2l-0.2,0.2h-0.6l-0.8-0.6l-1.6,0.6c-1-0.2-1.6-0.5-1.6-0.8l-1,0.2c-1.5-0.6-2.6-1.6-3.3-3.1
					v-1c0.3,0,0.7-0.5,1.2-1.4c1-1.7,1.7-2.6,2.1-2.7l0.4-1.8h0.4c0,0.4,0.1,0.6,0.4,0.6c0.8-0.2,1.2-0.7,1.2-1.4
					c0.7,0,1.4-0.6,2.1-1.8l0.2,0.2h0.8c0.3-0.2,1-1.6,1.9-4.3c0.2,0,0.8-0.6,1.8-1.8c0.7,0,1.1-0.5,1.4-1.4l-0.2-0.2l0.6-0.4
					l1.4,0.4v-0.2c0.4-0.5,0.6-1.3,0.6-2.5c0.4,0,0.6-0.5,0.6-1.6l1.4,0.2h0.6c0.6-0.4,1-0.7,1-1h0.2c0.4,0,0.9,0.2,1.4,0.6l0.2-1
					v-0.2l-0.2-0.2l1.4-2.9l1.8-1c0-1.1,1.2-2.5,3.5-4.1c0.8,0,1.4-1,1.8-3.1c0-1.1,0.7-2,2.1-2.7c0.2,0,0.3-0.5,0.4-1.4l-0.2-0.2
					l-0.2,0.2h-0.4c-0.3,0-0.4-0.2-0.4-0.6l-1.2,0.6l-0.2-0.2v-0.2l-1,0.2h-0.2l-0.2-0.8l-1,0.2l-0.6-0.4h-0.4
					c0,0.4-0.1,0.6-0.4,0.6l-2.3-0.6l-0.8,0.2c0-0.4-0.1-0.6-0.4-0.6c-0.7,0.4-1.6,0.6-2.7,0.8l-0.4-0.4h-0.2c0,0.4-0.1,0.6-0.4,0.6
					h-0.4c0-0.5-1.1-0.8-3.3-1l-0.6-0.2c0,0.3-0.5,0.7-1.6,1.2c-0.8-0.3-1.2-0.6-1.2-1l-0.6,0.4l-0.2-0.2l-3.5,0.8
					c-0.3,0-0.4-0.2-0.4-0.6h-0.6l0.2,0.8c-0.5,2-1.1,3.3-1.8,3.9c0.6,0,0.9,0.8,1.2,2.3l-0.2,0.2v0.2l0.2,1.8
					c0,0.5-0.5,1.2-1.4,1.9c-0.1,0.6-0.3,1-0.6,1l-0.8-0.8l-0.2,0.2h-0.2c-1-0.2-1.6-0.9-1.6-2.1l-1.2-1.2V108l-0.2-2.3l0.6-3.3
					L30,98.9l0.2-0.8L30,96.9l2.1-1.6v-0.2h0.8l0.6,0.4l1-0.6l1.6,0.4v-0.2l0.2,0.2h0.2l1.6-0.2l0.6,0.2
					C38.6,95.1,39.2,94.9,40.3,94.8z M32.3,111v0.6l0.4-0.4V111H32.3z"/>
				<path d="M112.5,95.8l0.2,0.2h0.2l0.8-0.2l1,0.6l0.6-0.4c0,0.3,0.7,0.9,2.1,1.9c0,0.5,0.6,1,1.9,1.6l1.8-0.4
					c0.7,0.3,1.9,1.3,3.7,2.9c1.4,0.6,2.1,1.5,2.1,2.7c1.4,0.5,2.1,1.3,2.1,2.3h0.4v0.2l-0.4,1.6h0.2l0.6-0.2v0.2l0.8,2.3l-0.8,1.2
					l0.4,0.4L130,115l0.4,1.9c-1.2,0.3-1.8,0.8-1.8,1.8l-0.6,0.4h-0.2c-0.4,0-1.1-0.3-2.1-1l-0.2,0.2h-0.2l-1.2-0.4l-0.2,0.2
					c-0.2-0.5-0.4-0.8-0.6-0.8h-1c-0.5,0.6-1,0.9-1.4,1c0-0.3-0.8-0.6-2.3-0.8c-0.5-0.6-0.8-1.1-0.8-1.6c0.4,0,0.9-0.3,1.6-1l1.4-1
					c0.8,0,1.2-0.2,1.2-0.6l0.2,0.2h0.4c0.2-0.9,0.5-1.4,0.8-1.4l0.2,0.2l0.6-2.5l-0.6-1.4c-0.7,0-1.1-0.8-1.2-2.5
					c-0.7-1.2-1.2-2.4-1.4-3.5c-0.3,0-0.4-0.3-0.4-0.8c-1-0.4-1.6-1-1.6-1.8h-1c-1,0-1.6-0.3-1.6-1H116l-0.8-0.2l-1.8,0.8h-0.4
					l-0.8-0.4l-0.6,0.2v-0.2c0-0.4-0.1-0.6-0.4-0.6l-1,0.2l-0.4-0.4c0,0.3-0.5,0.6-1.6,0.8l0.2-0.2v-0.2l-2.1-0.6
					c-1.1,1.2-2.1,2.1-3.1,2.5H103v-0.4h-0.2c-0.3,0-0.4,0.2-0.4,0.6h-0.2l-0.2-0.2l-0.2,0.2h-0.4l-0.8-0.6h-0.2
					c-0.6,0.8-1.4,1.2-2.3,1.2c0,0.4-0.8,1.1-2.3,1.9l-0.2,0.2c-0.4,0.3-0.9,1.2-1.4,2.7c-0.9,0.2-1.4,0.5-1.4,1l0.2,1l-0.2,1.2
					l0.6,3.5l-0.4,0.4c0.6,0.8,1.5,1.4,2.7,1.8c0,0.3,0.3,0.5,0.8,0.6c1.1-0.8,1.9-1.2,2.5-1.2c0,0.3,0.2,0.4,0.6,0.4l1.4-0.2
					c0.1,0.5,0.5,0.8,1.2,0.8c0-0.5,0.4-0.8,1.2-0.8h0.2l1.8,1.2l5.6-1.2h0.2c0.6,0.6,1.1,1,1.6,1l0.6,0.8v0.4
					c-0.5,0-0.8,0.4-0.8,1.2c-1.2,0.1-2.2,0.5-3.1,1h-1l-0.8-0.4l-0.6,0.2l-0.2-0.6l-1.2,0.4c-0.5-0.2-0.8-0.4-0.8-0.6l-1,0.6h-0.4
					v-0.4l-2.9,1l-3.3-0.6l-0.2,0.2h-0.2l-0.6-0.4l-2.7,1l-0.2-0.2v1h-1.2l0.2,1l-0.4,0.4c0.3,0,0.6,0.8,1,2.5l-0.2,0.2v0.2l1.6,4.5
					v0.2H94v0.4c0.3,0,0.6,0.2,1,0.6l0.2-0.2h0.2c0.7,1.4,1.5,2.2,2.1,2.3c0,0.2,0.6,0.7,1.9,1.6l2.1,1.6c0.6,0,1-0.1,1-0.4
					c0.8,0.2,1.6,0.9,2.3,2.1h0.2c2.1-0.4,3.6-0.8,4.3-1.4h0.6l0.8,0.6h0.2c0.3,0,0.5-0.8,0.8-2.3l0.2-0.2h0.2l0.4,0.4l1-0.4
					l1.9,0.2c0.4-1,1.5-1.6,3.3-1.6l0.2,0.2c1.6-2,2.7-3.5,3.3-4.7v-0.4l-0.6-0.6l0.6-1.6v-0.8h-0.4v-0.4h0.4l0.2,0.2l0.2-0.2h1.8
					c0-0.4,0.3-0.6,0.8-0.6l0.4,0.8l1-0.2h1.4c0.1,0.5,0.5,0.8,1.2,0.8l0.4,0.8l0.4,1.2v0.2l-0.4,0.6c0.4,0.1,0.6,0.5,0.6,1.2v0.2
					c-0.4,1.5-0.8,2.4-1.2,2.7l0.2,0.2v0.2c0,0.8-1.4,2.4-4.1,4.7l-1.6,0.8c-0.4,1.1-1.1,2.2-2.3,3.1l-0.8-0.4l-2.3,1.6
					c-0.4,0-0.7,0.2-1,0.6l-1.6-0.6H115l-0.2,0.2h-0.2l-0.4-0.4h-0.2c0,0.4-0.6,0.6-1.8,0.6l-1.2,0.6v-0.2l-1.4,0.4l-1.4-0.2
					l-1.6,0.6c0-0.6-1.1-1-3.3-1.2l-0.2-0.2l-1.4,0.2l-0.8-0.2l-1,0.2c-0.9-0.9-1.8-1.4-2.5-1.4c-0.4-1-1-1.6-1.8-1.6
					c0-0.7-0.3-1.5-1-2.3l-1,0.2c-0.7-1.3-1.3-1.9-1.8-1.9c-0.3,0-0.4-0.3-0.4-0.8h-0.8v-0.2l0.2-0.8l-0.4-1l-1,0.2l-0.2-0.2
					c-0.3,0-0.4-0.5-0.4-1.6h-0.4c0-1.5-0.5-2.8-1.4-3.9l0.2-1.9h-0.2c-0.3,0-0.5-0.6-0.6-1.8l0.2-0.6l-0.4-1.6v-0.8
					c0-0.6,0.2-1,0.4-1l-0.8-3.9h0.2l-0.4-1.2l0.4-0.8l-0.2-1.8l0.2-1.2l-0.2-1c0.4,0,0.8-0.9,1.4-2.7c0.6-0.4,1-0.9,1-1.8
					c0.7,0,1.2-0.3,1.6-1h0.4l0.6,0.2l0.2-0.2v-1l-1,0.2V103c0.5-0.6,1.2-1,2.1-1l1.4-1l-0.2-0.6c0.3,0,0.4-0.3,0.4-1l2.5-1.9l1,0.2
					v-0.2l1.2,0.6h0.2l1-0.8h0.2l1,0.2c0-0.4,0.2-0.6,0.6-0.6l0.2-0.2v-0.2l0.2,0.2h0.2l1.4-0.2l2.3,0.6c1.2-0.3,1.8-0.6,1.8-0.8
					l1.9,0.4C110.3,96.3,111.2,96,112.5,95.8z M89.5,115.4l1,0.4c1.2,0,1.8-0.4,1.8-1.2l-1-0.6h-0.2C90,114.7,89.5,115.2,89.5,115.4
					z M91.3,112.7v0.4h0.2v-0.4H91.3z M92.1,103.9v0.2h0.4v-0.2H92.1z M92.1,112.3v0.4l0.4,0.4h0.2l-0.2-0.8H92.1z M111.1,136.8v0.2
					l0.4,0.4v-0.6H111.1z M115.8,116.6c0.7,0,1.3,0.4,1.8,1.2l-1.9,0.6L115,118l-1.4,0.4v-0.6l1.6-1L115.8,116.6z M115,115h0.4
					l0.4,0.4v0.4l-0.2-0.2h-0.2l-0.2,0.2l-0.2-0.2V115z"/>
				<path d="M139.8,93.8h0.2l2.1,0.4l0.6-0.2v0.2l0.2-0.2h0.4c0.5,0,1,0.3,1.6,0.8h0.2l0.6-0.4h0.4l1.9,0.4l0.2-0.2v0.2l1.8-0.6
					c1.5,0.1,2.7,0.5,3.5,1.2l2.1-0.6l1,0.4l1.2-0.2l0.8,0.4l1-0.2c0.8,0.3,1.3,0.6,1.4,1L161,96h0.4c0,0.5,0.6,1.1,1.8,1.8l0.2,0.2
					v0.2l-1.2,0.8l0.4,1.4l-0.4,4.3l0.6,1.6l-0.2,3.7l0.4,0.8l-0.2,3.1v0.4l0.4,1.9l-0.4,1.9c0,0.9,0.8,1.5,2.3,1.8v2.5l-0.4,0.6
					v0.4l0.4,0.6v0.4c-1.4,0.8-2.1,1.6-2.1,2.3l0.4,3.3l-0.6,2.3c1,0.5,1.6,1.4,1.6,2.5l5.5,1.2h0.2l1.2,1.4h0.4
					c0.5,0,1-0.8,1.6-2.5h0.2l0.4,1.2h1.4l0.2-0.2l1.9,0.4c1-0.8,2-1.2,2.9-1.2l0.4-0.4h0.4c1.3,1,1.9,1.9,1.9,2.7v1.9h-0.2
					l-0.6-0.2v0.2c0,0.6-1,1.4-3.1,2.3l-0.2-0.2l-3.3,0.8H175l-1.2-0.2c-0.9,0.4-1.8,0.6-2.7,0.6c-0.1-0.4-0.5-0.6-1.2-0.6l-1.6,1
					l-1.6-0.6l-1.6,0.2v-0.2l-2.1,0.8l-1.6-0.6c-0.3,0.6-0.8,1-1.6,1l-1.2-0.2c-1.2,0.6-1.8,1-1.8,1.4h-0.4c0-0.5-0.5-0.9-1.6-1.2
					l-1,0.2h-0.6l-0.8-1.2l-0.6-0.4h-0.4c-1.2,0.7-2.1,1.5-2.7,2.3l-0.8,0.2c0-1.2-0.9-1.8-2.7-1.8h-0.2v0.2l-1-0.4
					c-0.9,0.6-1.7,1-2.3,1c0-0.5-0.6-0.9-1.9-1.2h-0.4l-0.2,0.2h-0.2l-1-1.4l0.2-1l-0.2-1.6c0-1.7,0.9-2.9,2.7-3.5
					c0.3-0.6,0.5-0.9,0.8-1h0.6c0.7,0.5,1.4,0.8,1.9,0.8l0.6-0.2l0.6,0.6l4.7-1.2c0,0.6,0.9,1.2,2.7,1.8c1.9-0.5,2.9-1.3,2.9-2.5
					l-0.4-1.2l0.6-2.7l-0.2-1.6v-0.2c0.6,0,1.1-1,1.6-2.9c-0.4-0.1-0.6-0.6-0.6-1.6l0.2-2.1l-1.2-3.1v-1l0.2-0.8l-0.2-0.2V116
					l1.4-3.7c0-2.5-0.2-4-0.6-4.5l0.6-1.2v-1.2c0-0.6-0.1-1-0.4-1l0.2-1c0-1.7-0.9-2.5-2.7-2.5l-0.2,0.2H154l-1.6-0.4
					c0,0.4-0.3,0.7-0.8,1h-1.2c0-0.7-0.4-1.3-1.2-1.6h-0.2c0,0.5-0.2,0.8-0.6,0.8l-0.6-0.6c-0.9,0.6-1.9,1-2.9,1l-0.8-0.4l-0.2,0.2
					h-0.2c-0.5,0-1.1-0.3-1.8-0.8l-0.2,0.2c-1.7,0-3-0.7-3.7-2.1v-0.2l0.2-0.8l-0.4-1.2C138.1,95.7,138.6,94.8,139.8,93.8z
					 M155.8,74h2.1l0.6,0.4h0.4l1.2-0.2c0.4,0,1.1,1,1.9,2.9c0.9,0,1.4,1.5,1.6,4.5v0.2l-1.2,3.1c-0.2,0-0.8,0.8-1.8,2.3l-0.4,0.4
					c0,0.5-0.5,0.8-1.6,0.8v0.2l-0.2-0.2c-0.4,0-1.2,0.3-2.3,1l-0.2-0.2V89l-0.2,0.2h-0.2c-0.6,0-1.8-0.8-3.3-2.3
					c0-0.4-0.5-0.9-1.6-1.4l-1.2-1.9l0.2-1.2c0-0.3-0.4-0.5-1.2-0.8c0-0.5-0.1-0.8-0.4-0.8c0.3-0.9,0.7-1.4,1.2-1.4v-1
					c0-0.5,0.3-1,1-1.6c0-0.4,0.6-1,1.9-1.8c0-0.6,0.6-1,1.8-1l1.2,0.4L155.8,74z M154.2,82.9v0.4h0.4v-0.4H154.2z M154.8,83.7
					l1.2,1.4h0.4l0.4-0.4c0-0.5-0.4-0.9-1.2-1.4h-0.4L154.8,83.7z"/>
				<path d="M177.3,98h0.4v0.4L177.3,98z M196.2,77.9l1.2,0.2v-0.2c0.8,0,1.7,2.4,2.8,7.2l-0.6,0.8l1,4c0,0.4-0.2,0.6-0.6,0.6
					l-0.2,0.2v0.2l0.4,0.8l-0.2,0.2V92l1.8,3h0.2l0.6-0.4l0.2,0.2h0.2v-0.2l0.2,0.2h0.2l0.8-0.2c0,0.6,0.4,1.2,1.2,1.8h0.8
					c0-0.5,0.3-0.8,1-1v0.2c1.2-0.9,2.6-1.5,4.2-1.6c0-0.3,0.6-0.4,1.8-0.4l1,1.2c0.9-0.4,2.8-0.8,5.6-1.2v1.2h1
					c0.4,0.1,0.6,0.5,0.6,1.2v2l0.4,0.6V99c-0.7,0-1.6,0.8-2.8,2.4c-0.4,0-0.6-0.3-0.6-0.8h-0.2l-1.6,1.6c-0.3,0-0.5-0.4-0.8-1.2
					l-0.2,0.2h-1.6l-0.2-1l-2.4,0.8l-0.4-0.4l-0.8,0.2l-1.4-0.2l-0.4,0.4c-0.4-0.4-1.2-0.7-2.6-1c-0.6-0.9-1-1.4-1.2-1.4l-1.6,1
					h-0.6l-0.6-0.4c-0.8,0.6-1.6,1.6-2.4,3.2c0.1,1.2,0.2,1.8,0.4,1.8l-0.2,0.2v2.8c0.4,0.3,0.6,1.3,0.8,3c-0.6,1-0.8,1.8-0.8,2.4
					l0.2,0.2l-0.2,1v1.2c0,0.3,0.2,0.4,0.6,0.4v0.6c0,0.9,0.2,1.4,0.4,1.4l-0.2,1v1l1.4,0.8v0.4c-0.3,0.8-0.8,1.3-1.6,1.6v0.4
					c0,0.4,0.4,0.6,1.2,0.8l0.2,1v0.8c-0.2,0.7-0.6,1-1.2,1v0.2l0.2,0.8l-0.2,0.8l0.6,1.4v0.2l-0.6,0.8v0.2c0,0.6,0.3,1,1,1.4v0.2
					l-0.2,1.4l1,1.8l-0.2,0.2l0.2,0.2H202c0,0.6,0.9,1.3,2.6,2.2l2-0.4l1.6,0.8c0.4,0,0.6-0.2,0.6-0.6h0.6c1.7,0,2.6-0.6,2.6-1.9
					c0.5,0,0.9-1,1.2-3c0.3,0,0.5-0.5,0.8-1.4l-0.2-0.8l0.4-1.2l-0.4-0.4v-1.4l0.4-1.6v-0.6l-1.2,0.2l-0.6-0.2V125
					c0.4,0,1.5-1,3.2-3l0.8-0.6l0.6,0.2v-0.2c0-0.5,0.4-1.4,1.2-2.8v-0.4h1l0.2-0.2c1.5,0.2,2.2,0.5,2.2,0.8
					c0.5,1.3,1.1,2.4,1.8,3.4v0.4l-1,1v1.8l0.4,1.2c-0.7,0.8-1.2,2.3-1.6,4.6c-0.5,1-0.8,2.1-1,3.4c-0.6,1.2-1.3,1.8-2,1.8l-0.2,1
					v0.6l-1,0.4h-0.2l0.2-0.2v-0.4c-0.4,0-0.6-0.2-0.6-0.6c-0.4,0-0.6-0.2-0.6-0.6h-0.2c-0.4,1-0.6,2-0.6,3h0.2l0.6,0.2v0.4
					l-0.4,0.4h-0.4v-0.4c-0.4,0.4-0.9,0.6-1.4,0.6c-0.2,1.6-0.9,2.4-2.2,2.4l-0.6,0.6c-1.3-0.1-2-0.2-2-0.4c-0.1-0.4-0.7-1-1.8-1.6
					c0,0.9-0.9,1.5-2.6,1.6l-0.2-0.2H204l-0.8,0.2c-0.2-0.8-0.4-1.2-0.6-1.2h-0.2v0.6h-0.6c-0.5-1.3-0.9-2-1.2-2l-0.2,0.2h-0.2
					l-0.8-0.2l-1.2,0.4l-0.4-1l-0.2,0.2h-0.2c-0.5-0.4-1.3-0.7-2.4-0.8c-0.9-2.5-1.6-3.7-2-3.7l0.2-0.6l-1.2-5.2
					c0.5-0.2,0.8-0.4,0.8-0.6v-0.2c-0.4-0.6-0.8-2.1-1.4-4.6c0-1,0.4-2.4,1.2-4.4l-0.2-3.9h0.4v-0.4c-0.4-0.7-0.8-1.8-1.2-3.2
					c0.5-1,0.8-1.8,0.8-2.4l-0.4-0.4v-0.4l0.2-1.2l-0.2-0.8h0.2c-0.2-0.7-0.6-1.4-1.2-2.2l0.4-1c-0.9-0.6-1.4-1.3-1.4-2v-1.4
					l0.2-0.2v-0.2h-0.4v0.4h-0.2c0-0.5-0.3-0.8-0.8-0.8c-0.2-0.5-0.7-0.8-1.4-0.8h-0.2l-1.4,1.4l-0.6,0.2l-0.4-0.8l-3,0.8l-2.2-1.2
					l-0.2-1h-0.2l-0.8,0.6h-0.2c-0.3,0-0.5-0.3-0.6-1l0.2-0.2h0.4v0.4h0.2c0-1.4,0.8-2.1,2.4-2.1l0.2-1.4h0.6c0.6,0,1.1-0.3,1.6-1
					l1.2-0.6c0,0.4,1.1,0.7,3.4,1v-0.2l2.6,1.2l0.2,0.2v0.2c0.4-0.1,0.6-0.4,0.8-0.8h0.4v-0.2c0-0.3-0.2-0.4-0.6-0.4V93l0.2-0.2
					l-0.2-0.6l0.2-0.6l-0.2,0.2h-0.2l-0.2-0.2L192,88c0.4-0.1,0.6-0.4,0.8-0.8c0.5,0,0.9,0.5,1.4,1.4l-0.4,2c0,1.8,0.6,2.8,1.8,2.8
					v-0.2l-0.2-1c0.5,0,0.9-1.8,1.2-5.4l-0.4-2.2l0.2-0.2v-0.4l-1.4-2.4C195.5,79.2,195.9,77.9,196.2,77.9z M192.8,80.3h0.4l0.4,6.2
					l-0.6,0.4h-0.2c-1-1-1.6-2.7-1.6-5.2L192.8,80.3z M193,96h0.6l0.4-1l-0.2-0.2C193.5,94.8,193.2,95.2,193,96z M193,137.3h0.2
					l0.4,0.4h-0.2L193,137.3z M194.2,107.5l0.6,1.4c-0.2,1.2-0.6,1.8-1,1.8v0.6l0.4,0.6L194,113l0.4,0.6v0.4c0,0.7-0.4,1.3-1.2,2
					c0.5,0.9,1.1,1.4,1.8,1.4v0.4l-0.6,1.8l0.2,0.2v0.8l-0.4,1.6l0.8,0.8v0.2l-0.2,0.8l0.2,0.6c0.9-1,1.4-2.8,1.4-5.2l-0.6-2
					c0.6-1.2,1-2.1,1-2.8v-1.2h-0.4l-0.4-0.6l0.2-1.4v-0.2l-0.4-3h0.2l0.4-0.6l-1.2-2.8l0.4-0.6l-0.2-0.8
					C194.9,103.6,194.5,104.9,194.2,107.5z M195,125.8l-0.2,0.6l-0.2-0.2h-0.4c0.1,0.8,0.3,1.2,0.6,1.2h0.2l0.4-0.4v-0.8L195,125.8z
					 M195.4,129.4l-0.4,0.6v0.2h0.4l-0.6,0.6c0,0.6,0.1,1,0.4,1l-0.2,0.2v0.4l1.6,1.6c0.5-0.6,0.8-1.1,0.8-1.6l-0.8-1v-0.6l0.2-0.2
					C196.8,130.2,196.3,129.8,195.4,129.4z M195.2,94.6l0.2,0.2h0.2v-0.6L195.2,94.6z M200,120v0.4h0.4V120H200z M214.7,136.5v0.2
					h0.4v-0.6L214.7,136.5z M216.1,126.2v0.6l0.4,0.4l0.2-0.8l-0.2-0.2H216.1z"/>
				<path d="M239.2,128.1v0.2l-0.2,0.6h0.2l-0.4,1.2l0.2,1l-0.2,1.8c0.3,1,0.7,1.7,1.4,1.9l1-0.2l0.6,0.6l0.8-0.6h0.6
					c0,0.4,0.4,0.6,1.2,0.6l1.6-0.2c0,0.4,0.3,0.6,0.8,0.6l1-0.2l0.2,0.2c0-0.2,0.3-0.4,1-0.6l0.2,0.2l0.2-0.2v-0.2l1.4,0.2h0.2
					l1.6-0.8l2.7,0.4l1.4-1.2l0.6,0.2l1.2-0.4c0.7,0.6,1.6,1,2.7,1.4c0-0.5,1.2-0.8,3.5-0.8h0.4l0.4-0.4l1.6,0.4l0.2-0.2v0.4l1-0.2
					l0.4,0.4l1-0.6h0.4c0.3,0,0.4,0.2,0.4,0.6h0.2c0.8-0.5,1.5-0.8,1.9-0.8l0.2,0.2h0.2l1.6-1h0.2l0.4,0.4l-0.4,1.2h0.2l0.2-0.2
					c0,0.5,0.5,0.8,1.6,1l1.9,0.6l0.6-0.2v0.4l2.5-0.8l0.4-0.4c0.3,0,0.4,0.2,0.4,0.6l-0.2,0.6c0,1.4,0.5,3.3,1.6,5.8
					c0,0.5,0.6,2.5,1.9,5.8l-0.2,1.4l0.4,1.6v0.2l-0.8,1.6l-0.2-0.2h-0.2c-0.4,0-0.8,0.5-1.4,1.4l0.2,1.4l-0.6,0.4l-0.2-0.2
					l-0.8,1.4v0.4l0.4,0.6c-0.6,0.9-1.1,1.4-1.4,1.4l-1-0.2c0,0.4-0.2,0.6-0.6,0.6l-0.4,0.8h-1.2l-0.6,0.4h-0.2l-1.4-0.2
					c0,0.3-0.2,0.4-0.6,0.4c0,0.4-0.5,1-1.4,1.8v0.4H273l-0.6-0.4l-1.4,0.4l-1-0.6c-0.5,1.3-0.9,1.9-1.2,1.9l-0.2-0.2h-0.2l-0.4,0.4
					H268l-0.2-0.2h-0.2l-0.4,0.4c-0.3,0-0.4-0.3-0.4-1l-2.1-0.4c0,0.4-0.8,0.6-2.5,0.8l-0.6-0.2v0.2c-1.3-0.3-1.9-0.6-1.9-0.8
					l-1.6,0.4l-0.4-0.4h-0.8c0,0.4-0.3,0.6-0.8,0.6l-0.2-0.6h-1c-0.3,0.3-0.7,0.4-1.4,0.4v0.2l-1.2-0.4l-1.4,0.6l-1-1.8l-0.2,0.2
					l-2.1-0.4l-0.2,0.2c-0.4-0.8-1.1-1.4-2.1-1.9L243,159l-0.2,0.2h-0.2c-0.8-0.2-1.2-0.5-1.2-0.8h-1.6v0.4h-0.4
					c-1.2-0.4-1.8-1.1-1.8-2.1c-1.2-0.7-1.8-1.5-1.8-2.3c-0.5,0-0.8-0.8-0.8-2.3l-0.4-1.2l0.2-0.2c-0.2,0-0.6-0.8-1-2.5l0.2-1.2
					c-0.4-0.7-0.6-1.3-0.6-1.9l0.8-1.2l0.6-0.6l-1-2.5l-0.2-0.2l0.2-0.6l0.8-0.2l0.2,0.2h0.2l0.6-0.4l0.2,0.2l1-1.2V138
					c-0.5,0-0.8-0.3-0.8-1c-0.6,0-1-0.6-1.2-1.8c-0.2,0-0.4-0.6-0.6-1.8c-0.5,0-0.9-0.4-1.4-1.2l0.2-0.6l-0.2-1
					c1-2.9,1.7-4.3,2.1-4.3c0.4-0.5,0.9-1.7,1.6-3.7l0.2,0.2h0.2c0.7,0,1.5-0.8,2.3-2.5l-0.4-4.1l0.2-0.6l-0.4-1.2l0.6-1.9v-1.2
					l-0.2-0.2l0.2-0.2v-1l-0.2-1.4l0.6-0.2v-1.6c0.4,0,0.8-0.9,1.2-2.7c0.5,0,1.3-0.7,2.5-2.1l2.1-1.8h0.4v0.4l1.4-1.9l1.4,0.2h0.2
					c0.4-0.2,0.8-0.7,1.2-1.6c0.6,0,0.9-0.2,1.2-0.6l2.3-1.2l1.4,1.2h0.2c1.2-0.2,1.8-0.6,1.8-1l0.8-0.4c0.1-0.9,0.3-1.4,0.6-1.4
					l2.1,1.8l2.1-0.4c0.3,0,0.6,0.4,1,1.2c0.5,0.1,1.3,0.8,2.5,2.1l0.6,0.2l0.4-0.4l0.2,0.2h0.2l0.8-0.2l1,0.2
					c1.8-0.5,2.7-1.3,2.7-2.3l0.2-1h0.8v0.6h0.2c0.5,0,0.9-0.3,1.4-0.8h0.2l2.5,0.4l0.8-0.2h0.6c0,0.3,0.4,0.6,1.2,1
					c0,0.4,0.3,0.6,0.8,0.6l1.2,1.4l0.2-0.2h0.2c0.6,0.3,0.9,0.8,1.2,1.4l-0.2,0.6c0.1,2.1,0.4,3.1,1,3.1l0.4,1v0.6l-0.4,0.4h-0.4
					l-0.2-0.2h-0.2l-0.2,0.2v0.2l0.2,2.3l-0.8,1.6h0.2c-0.3,0.6-0.5,0.9-0.8,1h-0.4V110h-0.4c0,0.4-0.5,0.7-1.4,0.8
					c0-0.4-0.1-0.6-0.4-0.6l-0.4,0.4h-0.2c0-0.4-0.2-0.6-0.6-0.6l-1.4-0.2h-0.8c-0.5-0.3-0.8-0.6-0.8-1.2c0.3,0,0.4-0.2,0.4-0.6
					l-0.6-2.7l0.2-1.2v-0.2l-0.4-0.6v-0.2l0.2-0.2v-0.2l-0.8-0.4h-0.8l-1.8,1.9c-0.4,0-0.6,0.5-0.6,1.4l0.2,0.8l-0.4,1.4
					c0.6,0,0.9,0.7,1,2.1l0.4,0.8l-0.2,1.2v0.6l0.4,0.6l-0.2,0.2l0.8,2.1v3.1c-0.8,1-1.6,1.7-2.3,1.9c-0.5,0-0.8,0.6-1.2,1.8
					c-0.7,0.3-1.3,1.1-1.8,2.5c-0.9,0-1.4-0.1-1.4-0.4l-0.2,0.2h-0.2c-0.3,0-0.4-0.2-0.4-0.6h-0.2l-0.4,1l0.2,0.8l-2.3,1.6l-0.8-0.2
					l-2.5,1.4h-0.2l-0.4-0.4l-0.2,0.2h-0.2l-1.6-0.6l-0.4,0.4h-0.6l-0.6-0.4l-1.2,1l-2.9-1.2l-0.2,0.2h-0.2l-3.1-1
					c-0.5,0-0.8-0.5-1-1.4c-0.6-0.3-1-0.6-1-1.2H246l-1,0.8l-0.2-0.2c-1,0.9-2.3,1.7-3.9,2.3l-0.6,0.6h-1v0.4H239.2z M236.8,128.5
					l0.4,0.4v-0.4H236.8z M254.3,138.6H254l-0.6-0.4l-0.2,0.2c-0.9-0.6-1.5-1-1.9-1c0,0.4-0.6,0.8-1.9,1.4l-1.2,1.6l-0.6-0.4h-0.4
					l-1.2,0.2l-0.8-0.2l-0.2,0.2l-0.2-0.2c0,0.4-0.3,0.7-0.8,1l-0.6-0.4h-1l-1.2,0.8v0.8l-0.2,1h-0.2l-0.2-0.2h-0.2
					c0,0.6-0.4,1.6-1.2,2.9l-0.6,1.8l0.4,0.4v1.9h0.2l1.4-0.2v0.2l-0.2,0.8c0.1,0.5,0.3,0.8,0.6,0.8v0.4l-0.2,0.2
					c0.5,1,1.1,1.6,1.9,1.6v-0.2c0.5,0,0.8,0.3,0.8,1l1.2,0.8v0.2l0.2-0.2h0.2l0.8,0.4c1-0.6,1.7-1,2.1-1l0.2,1.4h0.2l0.6-0.4
					c0.4,0.5,1,0.8,1.8,0.8l1.4-0.6l0.2,0.2l0.2-0.2v-0.2l0.2,0.2h0.4v-0.4h0.4c0.7,0.6,1.9,1.3,3.5,1.9l0.2-0.2l1.6,0.4
					c0.1-0.4,0.4-0.6,0.8-0.8c0.4,0,0.6,0.3,0.6,0.8l0.6,0.2l-0.2,0.2v0.2l0.2,0.2l1.9-0.8l1,0.4c0-0.3,0.6-0.4,1.8-0.4l0.4-0.4
					v-0.2h1v0.4h0.8c0-0.4,0.1-0.6,0.4-0.6h2.9c0-0.3,0.3-0.6,0.8-1l0.2-0.6h1.2c0.4-0.4,1-0.8,1.9-1.2l0.2,0.2
					c0-0.7,0.2-1.2,0.6-1.6l1,0.4l0.2-0.2v0.2c1.7-0.6,2.5-1,2.5-1.4c0.2-0.9,0.7-1.6,1.6-2.1h0.2l-1.6-3.5l0.2-0.2l-0.6-0.4
					l-1.2,0.6h-0.4v-0.2c0-0.3,0.3-0.5,0.8-0.6c-0.3-1-0.8-1.8-1.8-2.3l-0.8,0.2c0-0.4-0.3-1-1-1.8v-0.2h-0.2l-0.2,0.2
					c-0.5-0.4-1.6-0.7-3.1-1l-0.4-0.4l-0.2,0.2h-0.2l-0.2-0.2l-0.4,0.8h-0.8l-0.2-1h0.4v-0.6l-1.6-0.8c-0.5,0-1-0.2-1.4-0.6h-0.2
					l-0.4,0.4l-0.8-0.4c-0.6,0.1-1.2,0.5-1.8,1c-0.3,0-0.4-0.4-0.4-1.2c-0.5,0-0.8-0.3-0.8-0.8l-2.5,0.8l-0.2-0.8l-1,0.2h-1.6
					l-0.2-0.2C256.1,137.1,255.3,137.7,254.3,138.6z M239.2,128.1v-0.4H239v0.2L239.2,128.1z M252,101.2l0.2,1.6c0,0.5-1,1-2.9,1.4
					l-1.4,1.2c0,1.7-0.6,2.5-1.8,2.5c-0.3,0-0.5,0.3-0.6,0.8l0.2,0.8l-0.4,1.2l0.2,1.8l0.2-0.2h0.2v0.4c-0.5,0-0.8,0.8-1,2.3
					l0.4,0.6l-0.2,1.2l0.4,0.4l-0.2,0.2v0.2l1.4,1.8l-0.2,0.2v0.2c0.4,0,0.9,0.8,1.4,2.3c0.5,0,1.8,0.5,3.7,1.6l0.6-0.2l1.2,0.4h0.6
					c0,0.4,0.3,0.7,0.8,1h0.2l0.2-0.2l0.2,0.2h1c0-0.3,0.3-0.4,0.8-0.4v-0.4h1c0.5-0.4,0.9-0.6,1.4-0.6l0.6,0.4h0.2
					c1,0,2.1-0.8,3.1-2.3c1.6-0.5,2.3-1.4,2.3-2.7l0.6-1l-0.2-1.9h0.2c1.2-0.8,1.8-1.9,1.8-3.1c-0.2-2.1-0.5-3.1-1-3.1h-0.4v-0.2
					c0-1.5-0.5-2.4-1.4-2.7c-0.5,0-0.8-0.6-1-1.8c-0.3,0-0.6-0.5-0.8-1.4h-0.4c0-0.4-0.1-0.6-0.4-0.6h-0.2l-0.6,0.4h-0.8v-0.4h-1
					c0,0.3-0.8,0.6-2.3,0.8c-0.4,0-0.6-0.3-0.6-0.8l-1-0.6h-1.4c0,0.4-0.1,0.6-0.4,0.6l-2.1-1.6H252z M249.1,154.4l0.2,0.2v0.2
					l-0.4,0.4l-0.2-0.2v-0.2L249.1,154.4z M251.2,162.4v0.4h0.4v-0.4H251.2z M272.1,103.2l-0.2,0.2v0.4h0.2l0.4-0.4v-0.2H272.1z
					 M281.2,151.6v0.4h0.4L281.2,151.6z"/>
				<path d="M321,95.8l0.2,0.2h0.2l0.8-0.2l1,0.6l0.6-0.4c0,0.3,0.7,0.9,2.1,1.9c0,0.5,0.6,1,1.9,1.6l1.8-0.4
					c0.7,0.3,1.9,1.3,3.7,2.9c1.4,0.6,2.1,1.5,2.1,2.7c1.4,0.5,2.1,1.3,2.1,2.3h0.4v0.2l-0.4,1.6h0.2l0.6-0.2v0.2l0.8,2.3l-0.8,1.2
					l0.4,0.4l-0.2,2.3l0.4,1.9c-1.2,0.3-1.8,0.8-1.8,1.8l-0.6,0.4h-0.2c-0.4,0-1.1-0.3-2.1-1l-0.2,0.2h-0.2l-1.2-0.4l-0.2,0.2
					c-0.2-0.5-0.4-0.8-0.6-0.8h-1c-0.5,0.6-1,0.9-1.4,1c0-0.3-0.8-0.6-2.3-0.8c-0.5-0.6-0.8-1.1-0.8-1.6c0.4,0,0.9-0.3,1.6-1l1.4-1
					c0.8,0,1.2-0.2,1.2-0.6l0.2,0.2h0.4c0.2-0.9,0.5-1.4,0.8-1.4l0.2,0.2l0.6-2.5l-0.6-1.4c-0.7,0-1.1-0.8-1.2-2.5
					c-0.7-1.2-1.2-2.4-1.4-3.5c-0.3,0-0.4-0.3-0.4-0.8c-1-0.4-1.6-1-1.6-1.8h-1c-1,0-1.6-0.3-1.6-1h-0.6l-0.8-0.2l-1.8,0.8h-0.4
					l-0.8-0.4l-0.6,0.2v-0.2c0-0.4-0.1-0.6-0.4-0.6l-1,0.2l-0.4-0.4c0,0.3-0.5,0.6-1.6,0.8l0.2-0.2v-0.2l-2.1-0.6
					c-1.1,1.2-2.1,2.1-3.1,2.5h-0.4v-0.4h-0.2c-0.3,0-0.4,0.2-0.4,0.6h-0.2l-0.2-0.2l-0.2,0.2h-0.4l-0.8-0.6H309
					c-0.6,0.8-1.4,1.2-2.3,1.2c0,0.4-0.8,1.1-2.3,1.9l-0.2,0.2c-0.4,0.3-0.9,1.2-1.4,2.7c-0.9,0.2-1.4,0.5-1.4,1l0.2,1l-0.2,1.2
					l0.6,3.5l-0.4,0.4c0.6,0.8,1.5,1.4,2.7,1.8c0,0.3,0.3,0.5,0.8,0.6c1.1-0.8,1.9-1.2,2.5-1.2c0,0.3,0.2,0.4,0.6,0.4l1.4-0.2
					c0.1,0.5,0.5,0.8,1.2,0.8c0-0.5,0.4-0.8,1.2-0.8h0.2l1.8,1.2l5.6-1.2h0.2c0.6,0.6,1.1,1,1.6,1l0.6,0.8v0.4
					c-0.5,0-0.8,0.4-0.8,1.2c-1.2,0.1-2.2,0.5-3.1,1h-1l-0.8-0.4l-0.6,0.2l-0.2-0.6l-1.2,0.4c-0.5-0.2-0.8-0.4-0.8-0.6l-1,0.6h-0.4
					v-0.4l-2.9,1l-3.3-0.6l-0.2,0.2h-0.2l-0.6-0.4l-2.7,1l-0.2-0.2v1h-1.2l0.2,1l-0.4,0.4c0.3,0,0.6,0.8,1,2.5l-0.2,0.2v0.2l1.6,4.5
					v0.2h-0.4v0.4c0.3,0,0.6,0.2,1,0.6l0.2-0.2h0.2c0.7,1.4,1.5,2.2,2.1,2.3c0,0.2,0.6,0.7,1.9,1.6l2.1,1.6c0.6,0,1-0.1,1-0.4
					c0.8,0.2,1.6,0.9,2.3,2.1h0.2c2.1-0.4,3.6-0.8,4.3-1.4h0.6l0.8,0.6h0.2c0.3,0,0.5-0.8,0.8-2.3l0.2-0.2h0.2l0.4,0.4l1-0.4
					l1.9,0.2c0.4-1,1.5-1.6,3.3-1.6l0.2,0.2c1.6-2,2.7-3.5,3.3-4.7v-0.4l-0.6-0.6l0.6-1.6v-0.8h-0.4v-0.4h0.4l0.2,0.2l0.2-0.2h1.8
					c0-0.4,0.3-0.6,0.8-0.6l0.4,0.8l1-0.2h1.4c0.1,0.5,0.5,0.8,1.2,0.8l0.4,0.8l0.4,1.2v0.2l-0.4,0.6c0.4,0.1,0.6,0.5,0.6,1.2v0.2
					c-0.4,1.5-0.8,2.4-1.2,2.7l0.2,0.2v0.2c0,0.8-1.4,2.4-4.1,4.7l-1.6,0.8c-0.4,1.1-1.1,2.2-2.3,3.1l-0.8-0.4l-2.3,1.6
					c-0.4,0-0.7,0.2-1,0.6l-1.6-0.6h-0.4l-0.2,0.2h-0.2l-0.4-0.4h-0.2c0,0.4-0.6,0.6-1.8,0.6l-1.2,0.6v-0.2l-1.4,0.4l-1.4-0.2
					l-1.6,0.6c0-0.6-1.1-1-3.3-1.2l-0.2-0.2l-1.4,0.2l-0.8-0.2l-1,0.2c-0.9-0.9-1.8-1.4-2.5-1.4c-0.4-1-1-1.6-1.8-1.6
					c0-0.7-0.3-1.5-1-2.3l-1,0.2c-0.7-1.3-1.3-1.9-1.8-1.9c-0.3,0-0.4-0.3-0.4-0.8h-0.8v-0.2l0.2-0.8l-0.4-1l-1,0.2l-0.2-0.2
					c-0.3,0-0.4-0.5-0.4-1.6h-0.4c0-1.5-0.5-2.8-1.4-3.9l0.2-1.9h-0.2c-0.3,0-0.5-0.6-0.6-1.8l0.2-0.6l-0.4-1.6v-0.8
					c0-0.6,0.2-1,0.4-1l-0.8-3.9h0.2l-0.4-1.2l0.4-0.8l-0.2-1.8l0.2-1.2l-0.2-1c0.4,0,0.8-0.9,1.4-2.7c0.6-0.4,1-0.9,1-1.8
					c0.7,0,1.2-0.3,1.6-1h0.4l0.6,0.2l0.2-0.2v-1l-1,0.2V103c0.5-0.6,1.2-1,2.1-1l1.4-1l-0.2-0.6c0.3,0,0.4-0.3,0.4-1l2.5-1.9l1,0.2
					v-0.2l1.2,0.6h0.2l1-0.8h0.2l1,0.2c0-0.4,0.2-0.6,0.6-0.6l0.2-0.2v-0.2l0.2,0.2h0.2l1.4-0.2l2.3,0.6c1.2-0.3,1.8-0.6,1.8-0.8
					l1.9,0.4C318.8,96.3,319.8,96,321,95.8z M298,115.4l1,0.4c1.2,0,1.8-0.4,1.8-1.2l-1-0.6h-0.2C298.6,114.7,298,115.2,298,115.4z
					 M299.8,112.7v0.4h0.2v-0.4H299.8z M300.6,103.9v0.2h0.4v-0.2H300.6z M300.6,112.3v0.4l0.4,0.4h0.2l-0.2-0.8H300.6z
					 M319.7,136.8v0.2l0.4,0.4v-0.6H319.7z M324.3,116.6c0.7,0,1.3,0.4,1.8,1.2l-1.9,0.6l-0.6-0.4l-1.4,0.4v-0.6l1.6-1L324.3,116.6z
					 M323.6,115h0.4l0.4,0.4v0.4l-0.2-0.2h-0.2l-0.2,0.2l-0.2-0.2V115z"/>
				<path d="M348.3,93.8h0.2l2.1,0.4l0.6-0.2v0.2l0.2-0.2h0.4c0.5,0,1,0.3,1.6,0.8h0.2l0.6-0.4h0.4l1.9,0.4l0.2-0.2v0.2l1.8-0.6
					c1.5,0.1,2.7,0.5,3.5,1.2l2.1-0.6l1,0.4l1.2-0.2l0.8,0.4l1-0.2c0.8,0.3,1.3,0.6,1.4,1l0.2-0.2h0.4c0,0.5,0.6,1.1,1.8,1.8
					l0.2,0.2v0.2l-1.2,0.8l0.4,1.4l-0.4,4.3l0.6,1.6l-0.2,3.7l0.4,0.8l-0.2,3.1v0.4l0.4,1.9l-0.4,1.9c0,0.9,0.8,1.5,2.3,1.8v2.5
					l-0.4,0.6v0.4l0.4,0.6v0.4c-1.4,0.8-2.1,1.6-2.1,2.3l0.4,3.3l-0.6,2.3c1,0.5,1.6,1.4,1.6,2.5l5.5,1.2h0.2l1.2,1.4h0.4
					c0.5,0,1-0.8,1.6-2.5h0.2l0.4,1.2h1.4l0.2-0.2l1.9,0.4c1-0.8,2-1.2,2.9-1.2l0.4-0.4h0.4c1.3,1,1.9,1.9,1.9,2.7v1.9h-0.2
					l-0.6-0.2v0.2c0,0.6-1,1.4-3.1,2.3l-0.2-0.2l-3.3,0.8h-0.4l-1.2-0.2c-0.9,0.4-1.8,0.6-2.7,0.6c-0.1-0.4-0.5-0.6-1.2-0.6l-1.6,1
					l-1.6-0.6l-1.6,0.2v-0.2l-2.1,0.8l-1.6-0.6c-0.3,0.6-0.8,1-1.6,1l-1.2-0.2c-1.2,0.6-1.8,1-1.8,1.4h-0.4c0-0.5-0.5-0.9-1.6-1.2
					l-1,0.2h-0.6l-0.8-1.2l-0.6-0.4h-0.4c-1.2,0.7-2.1,1.5-2.7,2.3l-0.8,0.2c0-1.2-0.9-1.8-2.7-1.8H354v0.2l-1-0.4
					c-0.9,0.6-1.7,1-2.3,1c0-0.5-0.6-0.9-1.9-1.2h-0.4l-0.2,0.2h-0.2l-1-1.4l0.2-1l-0.2-1.6c0-1.7,0.9-2.9,2.7-3.5
					c0.3-0.6,0.5-0.9,0.8-1h0.6c0.7,0.5,1.4,0.8,1.9,0.8l0.6-0.2l0.6,0.6l4.7-1.2c0,0.6,0.9,1.2,2.7,1.8c1.9-0.5,2.9-1.3,2.9-2.5
					l-0.4-1.2l0.6-2.7l-0.2-1.6v-0.2c0.6,0,1.1-1,1.6-2.9c-0.4-0.1-0.6-0.6-0.6-1.6l0.2-2.1l-1.2-3.1v-1l0.2-0.8l-0.2-0.2V116
					l1.4-3.7c0-2.5-0.2-4-0.6-4.5l0.6-1.2v-1.2c0-0.6-0.1-1-0.4-1l0.2-1c0-1.7-0.9-2.5-2.7-2.5l-0.2,0.2h-0.2l-1.6-0.4
					c0,0.4-0.3,0.7-0.8,1H359c0-0.7-0.4-1.3-1.2-1.6h-0.2c0,0.5-0.2,0.8-0.6,0.8l-0.6-0.6c-0.9,0.6-1.9,1-2.9,1l-0.8-0.4l-0.2,0.2
					h-0.2c-0.5,0-1.1-0.3-1.8-0.8l-0.2,0.2c-1.7,0-3-0.7-3.7-2.1v-0.2l0.2-0.8l-0.4-1.2C346.6,95.7,347.2,94.8,348.3,93.8z
					 M364.3,74h2.1l0.6,0.4h0.4l1.2-0.2c0.4,0,1.1,1,1.9,2.9c0.9,0,1.4,1.5,1.6,4.5v0.2l-1.2,3.1c-0.2,0-0.8,0.8-1.8,2.3l-0.4,0.4
					c0,0.5-0.5,0.8-1.6,0.8v0.2l-0.2-0.2c-0.4,0-1.2,0.3-2.3,1l-0.2-0.2V89l-0.2,0.2h-0.2c-0.6,0-1.8-0.8-3.3-2.3
					c0-0.4-0.5-0.9-1.6-1.4l-1.2-1.9l0.2-1.2c0-0.3-0.4-0.5-1.2-0.8c0-0.5-0.1-0.8-0.4-0.8c0.3-0.9,0.7-1.4,1.2-1.4v-1
					c0-0.5,0.3-1,1-1.6c0-0.4,0.6-1,1.9-1.8c0-0.6,0.6-1,1.8-1l1.2,0.4L364.3,74z M362.7,82.9v0.4h0.4v-0.4H362.7z M363.3,83.7
					l1.2,1.4h0.4l0.4-0.4c0-0.5-0.4-0.9-1.2-1.4h-0.4L363.3,83.7z"/>
				<path d="M441.6,89.6c1.1,1.4,2.1,2.2,2.9,2.3l0.8-0.2l0.8,0.2l1.9-0.2c0,0.4,0.8,0.6,2.5,0.8l0.8-0.8c0.3,0,0.5,0.6,0.6,1.9
					l-0.2,0.8l0.2,1.9v0.4l-0.4,0.6l0.6,2.3v1c0,0.7-0.5,1.8-1.6,3.3l-0.2,0.6l0.4,1h-0.2c0,0.4,0.2,0.6,0.6,0.6l0.2,0.2v0.2
					l-0.2,0.8c0.3,0.4,0.5,1.2,0.6,2.3c-1.6,1-2.3,1.6-2.3,1.8l-2.1-0.8l-2.1,0.4c-0.8-0.7-1.2-1.3-1.2-1.8l-1-1.4
					c-0.4,0-0.6-0.1-0.6-0.4l0.6-0.2v-1l-1-1h-0.8l-0.4,0.8c0,0.7,0.2,1.3,0.6,1.8l-0.2,0.2l0.2,0.6c-0.1,1.2-0.4,1.8-0.8,1.8
					c-0.7,0-1.1-0.2-1.2-0.6l-0.2,0.2h-1c-0.6-0.3-1.2-0.9-1.6-1.9l-0.6-0.6v-1.4c-0.3,0-0.7-0.4-1.2-1.2l0.2-1v-0.2
					c-0.2-0.9-1.2-1.4-2.9-1.4c-1.1-1.1-1.8-1.7-2.1-1.8l-1.2,0.2l-0.8-1.2c0-0.8-0.6-1.2-1.9-1.2c-0.1,0.5-0.6,0.8-1.6,0.8
					c-0.3,0.7-1.1,1.7-2.3,2.7c0,0.6-0.6,1.2-1.9,1.8c-0.6,0.5-1,1-1,1.8l-1,1.2v0.2l0.2,0.8l-0.2,0.8l1.2,2.1
					c0.3,0,1.4,0.6,3.3,1.9l1.6-0.2l2.9,0.6l4.1-0.8c0.6,0,1.5,0.6,2.9,1.9l1,0.2l0.8-0.2l1.2,0.6l2.5-0.4h0.4
					c0.5,0.4,1.6,0.8,3.1,1.2l1.8,1.6l0.4,0.6c0.6-0.5,1.2-0.8,1.9-0.8c0-0.4,0.2-0.6,0.6-0.6c1,0,2,0.8,2.9,2.5
					c0,0.3,0.6,0.9,1.8,1.9c0.3,2.1,0.7,3.1,1.4,3.1c0.4,0,0.8,0.3,1.2,1v0.2l-0.6,0.6v-0.4h-0.4v0.2l0.2,0.6
					c-0.3,0-0.5,0.5-0.6,1.4l0.4,1.4c-0.5,0-0.8,0.8-1.2,2.3l0.2,0.8c0,0.9-0.7,1.7-2.1,2.3c-0.1,1-0.5,1.6-1.2,1.6
					c0,0.3-0.3,0.6-1,0.8c0,0.9-0.7,1.5-2.1,1.9c-0.4,0.4-0.7,1.2-1,2.5c-0.5,0.6-0.9,1-1.4,1l-0.8-0.4l-4.9,1.8l-1.8-0.6l-2.5,0.2
					c-0.6-0.4-1.3-0.6-1.9-0.6l-1,0.2c0-0.5-2-0.8-6-1l-0.2-0.2l-2.3,0.8l-1.8-0.2c-1.1,0-1.9,0.4-2.3,1.2l-1.4-0.8
					c-0.4,0.1-0.6,0.5-0.6,1.2h-0.2l-1-0.2l-0.6,0.8h-0.4c-0.8-1-1.8-1.8-3.1-2.5c-0.2-0.7-1.1-1.8-2.7-3.3c-0.3,0-0.9,0.7-1.9,2.1
					c-0.5,0-1.5,0.5-3.1,1.4h-1c-0.8,0-1.4-1.3-1.8-3.9c0.4-2.2,1-4.5,1.8-6.8l-1-3.3v-0.6l0.2-0.2l-1-3.3c0.3-1.1,0.9-2.1,1.8-3.1
					l1.6-0.2l1.2,1.2l0.2-0.2h0.2c1.3,1.2,2.1,2.4,2.5,3.5c0.4,0,1.2,0.3,2.3,1c0.9-0.4,1.8-1.1,2.5-1.9h0.2
					c0.9,1.2,1.8,2.1,2.5,2.7v0.4l-0.2,1c1.4,0.5,2.1,1.3,2.1,2.5c0.9,2.1,1.6,3.1,2.1,3.1l2.7,0.6l0.2-0.2l3.1,1.6l0.6,0.2
					c0.8-0.4,1.6-0.6,2.3-0.6l1.6,0.2c0.5-1,1.4-1.8,2.9-2.3c0-0.3,0.5-0.8,1.6-1.4c0-0.6,0.6-1.3,1.6-2.3c0-1.2,0.4-1.8,1.2-1.8
					c0.4,0,0.6-0.1,0.6-0.4l-0.2-0.6l0.2-1c-0.5-1.6-1.4-2.7-2.5-3.3c-0.2-0.9-1.1-1.4-2.5-1.4l-0.4-0.4v-0.2H433l-1.2,0.8l-4.9-3.3
					l-0.2-0.2l-2.7,0.6l-1-0.8c-1.5,0.2-2.3,0.4-2.5,0.6H420c-0.3,0-0.4-0.2-0.4-0.6l-0.2-0.2h-0.2l-0.4,0.4l0.2,0.2l-0.2,0.6h-0.6
					l-1-0.2c-1.4,0.2-2.1,0.4-2.1,0.6c-0.5-0.2-0.9-0.5-1.2-1l0.2-0.8c-1.6-0.7-2.3-1.2-2.3-1.4c0-0.9-0.8-1.5-2.5-1.8
					c-0.5-0.7-1.4-1.3-2.5-1.6c0-0.3-0.5-0.8-1.4-1.4c0-0.9-0.5-2.7-1.6-5.3l-0.4-1.2c0-1.1,0.6-2.4,1.9-3.9h0.4
					c0,1,0.3,1.6,0.8,1.6h1v0.6h0.4v-1.4c-1.2-1.4-1.8-2.7-1.9-3.9l0.2-0.2h0.2l1.4,0.2l0.4-0.4h1c0.5,0,0.8,0.9,1,2.7
					c-1.4,1.7-2.1,3-2.1,3.9v0.2l1.2,3.1l-0.2,0.8c1.1,0.6,2,1.5,2.5,2.7c0.4,0,0.9,0.4,1.6,1.2l0.6-0.6v-0.4
					c-0.8-1.9-1.5-3-1.9-3.3l0.6-2.5l-0.2-1.4l1.4-4.9c-0.1-0.9-0.4-1.7-0.8-2.3c0-1.6,0.8-2.3,2.3-2.3c0-1.6,1.4-2.3,4.1-2.3
					c0-0.3,1.3-0.5,3.9-0.6v0.2l1.2-0.6h0.2c0.9,0.7,1.6,1,2.1,1l0.2-0.2h0.2c1,0.3,1.6,0.6,1.6,0.8l1.2-1.2h1.6
					c1.4,1,2.4,1.6,3.1,1.6c1-0.2,2.1-0.8,3.3-1.9c1.6,0,2.6-0.4,2.9-1.2H441.6z M443.3,125.7l-0.2-0.2H443c-0.2,0-0.5,0.6-0.8,1.8
					c-0.3,0-0.6,0.7-1,2.1l0.4,1.6l-0.2,1.8h0.2c0.8-0.2,1.4-0.5,1.6-0.8l1,0.2h0.4l1.8-2.9v-0.6l-0.4-1.2h0.2l-0.2-0.2l0.2-1v-1
					c0-0.9-0.5-1.4-1.4-1.4h-0.6C443.9,123.9,443.6,124.5,443.3,125.7z M443.5,114.2l0.4,0.4h-0.4V114.2z"/>
				<path d="M461.1,98h0.4v0.4L461.1,98z M479.9,77.9l1.2,0.2v-0.2c0.8,0,1.7,2.4,2.8,7.2l-0.6,0.8l1,4c0,0.4-0.2,0.6-0.6,0.6
					l-0.2,0.2v0.2l0.4,0.8l-0.2,0.2V92l1.8,3h0.2l0.6-0.4l0.2,0.2h0.2v-0.2l0.2,0.2h0.2l0.8-0.2c0,0.6,0.4,1.2,1.2,1.8h0.8
					c0-0.5,0.3-0.8,1-1v0.2c1.2-0.9,2.6-1.5,4.2-1.6c0-0.3,0.6-0.4,1.8-0.4l1,1.2c0.9-0.4,2.8-0.8,5.6-1.2v1.2h1
					c0.4,0.1,0.6,0.5,0.6,1.2v2l0.4,0.6V99c-0.7,0-1.6,0.8-2.8,2.4c-0.4,0-0.6-0.3-0.6-0.8h-0.2l-1.6,1.6c-0.3,0-0.5-0.4-0.8-1.2
					l-0.2,0.2h-1.6l-0.2-1l-2.4,0.8l-0.4-0.4l-0.8,0.2l-1.4-0.2l-0.4,0.4c-0.4-0.4-1.2-0.7-2.6-1c-0.6-0.9-1-1.4-1.2-1.4l-1.6,1
					h-0.6l-0.6-0.4c-0.8,0.6-1.6,1.6-2.4,3.2c0.1,1.2,0.2,1.8,0.4,1.8l-0.2,0.2v2.8c0.4,0.3,0.6,1.3,0.8,3c-0.6,1-0.8,1.8-0.8,2.4
					l0.2,0.2l-0.2,1v1.2c0,0.3,0.2,0.4,0.6,0.4v0.6c0,0.9,0.2,1.4,0.4,1.4l-0.2,1v1l1.4,0.8v0.4c-0.3,0.8-0.8,1.3-1.6,1.6v0.4
					c0,0.4,0.4,0.6,1.2,0.8l0.2,1v0.8c-0.2,0.7-0.6,1-1.2,1v0.2l0.2,0.8l-0.2,0.8l0.6,1.4v0.2l-0.6,0.8v0.2c0,0.6,0.3,1,1,1.4v0.2
					l-0.2,1.4l1,1.8l-0.2,0.2l0.2,0.2h-0.2c0,0.6,0.9,1.3,2.6,2.2l2-0.4l1.6,0.8c0.4,0,0.6-0.2,0.6-0.6h0.6c1.7,0,2.6-0.6,2.6-1.9
					c0.5,0,0.9-1,1.2-3c0.3,0,0.5-0.5,0.8-1.4l-0.2-0.8l0.4-1.2l-0.4-0.4v-1.4l0.4-1.6v-0.6l-1.2,0.2l-0.6-0.2V125
					c0.4,0,1.5-1,3.2-3l0.8-0.6l0.6,0.2v-0.2c0-0.5,0.4-1.4,1.2-2.8v-0.4h1l0.2-0.2c1.5,0.2,2.2,0.5,2.2,0.8
					c0.5,1.3,1.1,2.4,1.8,3.4v0.4l-1,1v1.8l0.4,1.2c-0.7,0.8-1.2,2.3-1.6,4.6c-0.5,1-0.8,2.1-1,3.4c-0.6,1.2-1.3,1.8-2,1.8l-0.2,1
					v0.6l-1,0.4h-0.2l0.2-0.2v-0.4c-0.4,0-0.6-0.2-0.6-0.6c-0.4,0-0.6-0.2-0.6-0.6h-0.2c-0.4,1-0.6,2-0.6,3h0.2l0.6,0.2v0.4
					l-0.4,0.4h-0.4v-0.4c-0.4,0.4-0.9,0.6-1.4,0.6c-0.2,1.6-0.9,2.4-2.2,2.4l-0.6,0.6c-1.3-0.1-2-0.2-2-0.4c-0.1-0.4-0.7-1-1.8-1.6
					c0,0.9-0.9,1.5-2.6,1.6l-0.2-0.2h-0.2l-0.8,0.2c-0.2-0.8-0.4-1.2-0.6-1.2h-0.2v0.6h-0.6c-0.5-1.3-0.9-2-1.2-2l-0.2,0.2h-0.2
					l-0.8-0.2l-1.2,0.4l-0.4-1l-0.2,0.2h-0.2c-0.5-0.4-1.3-0.7-2.4-0.8c-0.9-2.5-1.6-3.7-2-3.7l0.2-0.6l-1.2-5.2
					c0.5-0.2,0.8-0.4,0.8-0.6v-0.2c-0.4-0.6-0.8-2.1-1.4-4.6c0-1,0.4-2.4,1.2-4.4l-0.2-3.9h0.4v-0.4c-0.4-0.7-0.8-1.8-1.2-3.2
					c0.5-1,0.8-1.8,0.8-2.4l-0.4-0.4v-0.4l0.2-1.2l-0.2-0.8h0.2c-0.2-0.7-0.6-1.4-1.2-2.2l0.4-1c-0.9-0.6-1.4-1.3-1.4-2v-1.4
					l0.2-0.2v-0.2h-0.4v0.4h-0.2c0-0.5-0.3-0.8-0.8-0.8c-0.2-0.5-0.7-0.8-1.4-0.8H471l-1.4,1.4l-0.6,0.2l-0.4-0.8l-3,0.8l-2.2-1.2
					l-0.2-1h-0.2l-0.8,0.6H462c-0.3,0-0.5-0.3-0.6-1l0.2-0.2h0.4v0.4h0.2c0-1.4,0.8-2.1,2.4-2.1l0.2-1.4h0.6c0.6,0,1.1-0.3,1.6-1
					l1.2-0.6c0,0.4,1.1,0.7,3.4,1v-0.2l2.6,1.2l0.2,0.2v0.2c0.4-0.1,0.6-0.4,0.8-0.8h0.4v-0.2c0-0.3-0.2-0.4-0.6-0.4V93l0.2-0.2
					l-0.2-0.6l0.2-0.6l-0.2,0.2h-0.2l-0.2-0.2l1.2-3.6c0.4-0.1,0.6-0.4,0.8-0.8c0.5,0,0.9,0.5,1.4,1.4l-0.4,2c0,1.8,0.6,2.8,1.8,2.8
					v-0.2l-0.2-1c0.5,0,0.9-1.8,1.2-5.4l-0.4-2.2l0.2-0.2v-0.4l-1.4-2.4C479.2,79.2,479.6,77.9,479.9,77.9z M476.5,80.3h0.4l0.4,6.2
					l-0.6,0.4h-0.2c-1-1-1.6-2.7-1.6-5.2L476.5,80.3z M476.7,96h0.6l0.4-1l-0.2-0.2C477.2,94.8,476.9,95.2,476.7,96z M476.7,137.3
					h0.2l0.4,0.4h-0.2L476.7,137.3z M477.9,107.5l0.6,1.4c-0.2,1.2-0.6,1.8-1,1.8v0.6l0.4,0.6l-0.2,1.2l0.4,0.6v0.4
					c0,0.7-0.4,1.3-1.2,2c0.5,0.9,1.1,1.4,1.8,1.4v0.4l-0.6,1.8l0.2,0.2v0.8l-0.4,1.6l0.8,0.8v0.2l-0.2,0.8l0.2,0.6
					c0.9-1,1.4-2.8,1.4-5.2l-0.6-2c0.6-1.2,1-2.1,1-2.8v-1.2h-0.4l-0.4-0.6l0.2-1.4v-0.2l-0.4-3h0.2l0.4-0.6l-1.2-2.8l0.4-0.6
					l-0.2-0.8C478.6,103.6,478.2,104.9,477.9,107.5z M478.7,125.8l-0.2,0.6l-0.2-0.2h-0.4c0.1,0.8,0.3,1.2,0.6,1.2h0.2l0.4-0.4v-0.8
					L478.7,125.8z M479.1,129.4l-0.4,0.6v0.2h0.4l-0.6,0.6c0,0.6,0.1,1,0.4,1l-0.2,0.2v0.4l1.6,1.6c0.5-0.6,0.8-1.1,0.8-1.6l-0.8-1
					v-0.6l0.2-0.2C480.5,130.2,480.1,129.8,479.1,129.4z M478.9,94.6l0.2,0.2h0.2v-0.6L478.9,94.6z M483.7,120v0.4h0.4V120H483.7z
					 M498.4,136.5v0.2h0.4v-0.6L498.4,136.5z M499.8,126.2v0.6l0.4,0.4l0.2-0.8l-0.2-0.2H499.8z"/>
				<path d="M531.3,96.4h0.8c0.5,0.3,0.8,0.6,0.8,1.2h1l0.2-0.2l0.2,0.2h0.6l0.2-0.2h0.2c0,0.5,0.8,0.9,2.3,1.4l2.5-1h0.8
					c0.6,0.4,1.2,1.1,1.6,1.9l1.2,1v0.6l-1.4,1.4h-2.3l-0.4-0.4l-1,0.6l-0.4-0.4l-1,1.9l0.2,0.2v0.2l-0.8,1.4v0.4
					c0.3,0,0.8,0.6,1.6,1.8v0.2c0,0.6-0.4,1.2-1.2,1.8v0.4c0,0.3,0.2,0.4,0.6,0.4v0.6l-1,1c-0.3,0-0.4-0.3-0.4-0.8h-1l-0.8-0.8
					l0.2-1c0-0.3-0.5-0.6-1.4-1l0.2-0.8c-0.4-2.1-1.1-3.4-1.9-3.9l-1.8-1.2l-0.6,0.4l-0.2-0.2h-0.6v1.2l0.6,0.2
					c-0.2,0.5-0.4,0.8-0.6,0.8c0.5,0.7,1,2.1,1.6,4.3l1,1.2v0.4c-0.4,0-0.9,0.9-1.6,2.7c-0.3,0-0.7,0.3-1.4,1l-0.6-0.2v-0.2
					c0-0.4,0.2-0.9,0.6-1.4c0-0.4-0.5-0.7-1.6-1c0-0.4-0.6-0.6-1.8-0.8v-1.4l0.6-0.8l-0.2-0.2l0.4-1.9l-1.4-3.1h-0.6l-0.2,0.2
					l-3.1-1.2l-1.2,0.8c-2.9,0-4.3-0.5-4.3-1.6c-0.4-0.4-0.8-0.6-1.2-0.6v-1c2.2-1.6,4.3-2.4,6.4-2.5c0.8-0.6,1.4-1,1.9-1
					c0.6,0,1,0.3,1,0.8h0.4l-0.2-0.2v-0.2h1.4l0.6,0.4h2.7c1.1-0.7,2.3-1.2,3.5-1.6V96.4z M542.1,139.6c0.3,0,0.4,0.2,0.4,0.6
					l-0.4,0.6l0.4,0.8c-1.2,1.1-1.8,2.5-1.8,4.3l0.2,0.2c-0.6,1.6-1.2,2.3-1.6,2.3l-0.2-0.2l-0.2,0.2l0.4,1.6l-0.2,1l0.4,2.5
					c1.4-0.4,2.1-0.8,2.1-1.4l-0.2-0.6c0.2,0,0.6-0.6,1.2-1.9c0.6,0,1.3-0.8,1.9-2.3l0.2-0.6h0.2l-0.6-1v-0.4h1
					c0.2,0,0.6-0.8,1.2-2.3l0.8-0.6h0.2v1.2l0.4,0.4l0.6-0.6l0.6,1.9c0,0.8-0.3,1.2-1,1.2v0.8c0.4,0,0.6,0.1,0.6,0.4v0.6l-0.4,0.6
					v1.6c0,1.1-0.7,1.9-2.1,2.3c0,1.8-0.5,3.3-1.4,4.7c0,0.7-0.5,1.5-1.4,2.3l-1-0.2c-0.2,0.7-0.7,1.1-1.4,1.2
					c0,0.9-0.2,1.4-0.6,1.4l-2.7,1.4l-2.1,0.4l-0.4-0.4l-0.4,0.4c-1-0.1-1.6-0.4-1.6-1l-1,1c-0.6,0-1,0.1-1,0.4l-2.1-1.4
					c-0.9,0-1.7-0.4-2.3-1.2l-1.8,0.6l-1.2-0.4h-1.8c-1.8,0-3.1-1-4.1-3.1l-0.2-0.2h-0.2l-0.8,0.2c-0.9-1.3-1.5-2.6-1.8-3.7v-1.8
					L515,152c0-1.2,1.2-2.6,3.5-4.3c0.7-0.1,1.9-0.9,3.7-2.3h0.4l1.4,0.8l2.3-0.8c0.8,0.1,1.2,0.3,1.2,0.6l-0.4,0.4v0.2h0.4l0.8-0.4
					c1.2,0,2.5,0.8,3.9,2.5v0.2l-0.4,1.6l0.4,1.4l-0.2,0.2v0.2l0.2,0.6l-0.2,1l1.2,0.8h-0.4v0.4l0.4,0.4h0.2l0.4-0.4l-0.4-0.6
					l0.2-0.2V153h0.2l0.2,0.2h0.2c0.1-0.6,0.7-1.4,1.8-2.3c0-1.2,0.4-2,1.2-2.3c0-1.4,0.5-2.1,1.4-2.1l-0.2-1l0.2-0.2h0.2l1.4,0.2
					v-1.4c0-0.7-0.3-1.2-1-1.4c0.4-0.9,0.7-1.4,1.2-1.6l0.6,0.2l1-0.8C541.7,139.9,541.8,139.6,542.1,139.6z M522,157.3l0.2,1h0.2
					l0.6-0.4c1,0.1,1.6,0.5,1.6,1h1c0-0.4,0.3-0.6,0.8-0.6v-0.2c0-0.4-0.3-0.9-0.8-1.4l-0.2,0.2h-1c0-0.4-0.2-0.6-0.6-0.6v-0.2
					l0.2-0.2v-0.2h-0.2l-0.2,0.2c-0.4,0.6-0.9,1-1.4,1l-0.2,0.2V157.3z M526.9,156.5v0.4h0.2v-0.4H526.9z M527.5,101.6v0.8l0.2-0.2
					h0.2l0.6,0.2l-0.2-0.2V102l0.2-0.2l-0.2-0.2H527.5z M530.4,116.4h0.6v0.2l-0.4,0.4l-0.2-0.2V116.4z M533.1,121.1h0.2
					c0.8,0.3,1.4,1.2,1.9,2.9c0.2,0,0.6,2,1.2,6c0.8,0.8,1.2,1.7,1.2,2.7c1.2,0,1.8,0.7,1.8,2.1v1c0,1.4-0.3,2.1-1,2.1h-0.2
					c-2.1-1.7-3.2-2.9-3.3-3.5l-0.2-0.8l0.2-1.9l-0.4-1.4l0.6-0.6c-0.3-0.9-0.8-1.4-1.6-1.4l-0.6,0.6h-0.2v-0.6l0.4-1.6v-0.2
					c-1.3-0.8-1.9-1.6-1.9-2.3l0.8-0.8c-0.3,0-0.4-0.2-0.4-0.6C532,122.1,532.5,121.5,533.1,121.1z M532.3,155v0.4h0.2V155H532.3z
					 M537,113.3h0.4c0,0.5,0.3,0.8,0.8,0.8v0.4h0.4v-0.8h0.2c0.7,0,1.2,0.3,1.4,0.8c-0.5,0.2-0.8,0.4-0.8,0.6l1.6,1.6l-0.2,0.8
					l0.4,0.8l-0.2,1.6c0,0.4,0.3,0.8,1,1.4l0.2,2.3l-1,0.2c-0.4-1-1.2-2.1-2.3-3.3c0-0.5-0.5-1.2-1.6-2.1c-0.9-2-1.4-3.3-1.4-3.9
					l0.2-0.6l1,0.2V113.3z M537.6,115v0.2h0.4V115H537.6z M542.6,124h0.2l0.6,0.6l-0.2,0.2l0.2,1.9v0.2l-0.6,0.6h-0.8l-0.4-0.4v-0.4
					c0-0.6,0.2-1,0.4-1l-0.2-0.2V125l0.8-0.6V124z M542.8,128.9h0.6c0,0.5,0.2,0.8,0.4,0.8c-0.1,0.4-0.4,0.7-0.8,0.8l-0.8-1
					L542.8,128.9z M556.7,96.5c0.9,0,1.4,0.5,1.4,1.4l1.6,0.4l1.4-0.4v0.2l1.9-0.4c0.6,0.3,2,0.6,4.3,1c1.3,0.3,1.9,0.5,1.9,0.8v0.2
					l-0.2,0.8l0.4,1c-1.1,0.5-1.7,0.9-1.8,1.2v0.4c1,0.1,1.6,0.3,1.6,0.6l-0.2,0.2l0.2,0.2v0.2l-0.4,0.4h-1c0,0.4-0.5,0.7-1.6,1.2
					l-3.7,5.1l0.2,0.2c-0.6,0.5-1,1-1,1.6l0.2,0.8c-0.1,0.5-0.5,1-1.4,1.4c0,1.9-0.6,3.9-1.9,5.8c-0.2,2.1-0.6,3.1-1.4,3.1l-1-1.9
					h-0.6v0.4l0.2,0.2v0.2h-0.2c0,0.3,0.5,0.9,1.6,1.8v0.2l-1.9,4.1c0,1.2-0.5,2.4-1.4,3.7l-0.2,1.4l0.4,0.4c0,0.7-0.5,1.4-1.4,2.1
					c-0.4,0.9-0.7,2.4-0.8,4.3c-1.2,0.5-2,0.9-2.3,1.4c-1,0-1.7,0.2-2.1,0.6v-0.6c0.6-0.1,1-0.3,1-0.6v-0.2
					c-0.2-0.5-0.6-0.8-1.4-0.8h-0.2l-1.4,0.2l0.6-2.1c-0.3-0.1-0.7-1-1.2-2.9h-0.4c0-0.3-0.3-0.7-1-1.2v-0.2
					c0.4-0.6,0.6-1.1,0.6-1.6h0.8v0.4c0.7,0,1.1,1,1.4,3.1l0.6,0.4c0.9,0,2-1,3.3-3.1c0.6-2.1,1.6-3.1,2.7-3.1
					c0.5,0,0.8-0.1,0.8-0.4l-1-0.8c0.4-1.6,1.2-2.9,2.3-3.9l-0.6-2.3c0.6-0.2,1-0.4,1-0.6l-0.2-0.2l0.2-0.2v-0.4l-0.2-0.8l0.4-1.2
					v-1l-0.4-0.6v-1c0.6,0,1.4-1.6,2.3-4.7l-0.2-0.2c0.1-0.6,0.7-1.4,1.8-2.3l0.4-2.9l-0.2-0.2h-0.2l0.2-1.6c0-0.8-0.4-1.2-1.2-1.2
					h-0.8c0-0.6-0.6-0.9-1.8-1l-0.2-0.2v-0.2c-1.1,0-2,0.3-2.7,1h-0.2l-0.6-1.9c0.7,0,1.2-0.4,1.6-1.2v-0.6c-0.5,0-0.8-0.2-0.8-0.6
					v-0.2c0-0.5,1.1-0.9,3.3-1.2C556.2,96.9,556.4,96.5,556.7,96.5z M544.8,130.8h0.4l0.2,0.2h0.2c-0.2,0.5-0.4,0.8-0.6,0.8h-0.2
					v-0.4h-0.2L544.8,130.8z M547.1,126.5c0.4,0,0.6,0.3,0.6,0.8l0.2,0.2l-0.2,0.2l-1.4,2.1h-0.2c-0.7,0-1.1-0.3-1.4-0.8v-0.2
					c0-0.2,0.6-0.8,1.9-1.8C546.7,126.7,546.9,126.5,547.1,126.5z M547.9,100.4c1.3,0.3,1.9,0.5,1.9,0.8v0.4c-0.4,0-0.8,0.3-1.4,0.8
					c-1.8-0.2-2.7-0.6-2.7-1.2v-0.4L547.9,100.4z"/>
			</g>
		</g>
	</g>
	<g>
		<g>
			<g>
				<g>
					<g>
						<g>
							<path d="M585.4,107c0-16,6-31,15-45c21-30,58-42,92-32c37,11,62,50,52,88c-1,3-2,6-3,9c-9,21-27,36-50,39c-10,1-20,1-30-3
								c-16-8-29-21-31-39c-2-20,6-39,24-48c13-6,30-5,40,8c6,8,9,18,4,28c-2,5-7,8-11,10c-7,4-19-2-16-11c2-4,8-9,3-13
								c-5-3-11-3-15,2s-6,10-6,16c1,13,10,22,22,26c8,2,17,2,25-2c13-8,22-21,23-36c1-14-4-27-13-37c-21-22-55-23-78-4
								c-2,2-4,5-7,7c-13,14-19,32-18,51c2,16,9,32,20,44c14,15,33,22,53,23c45,2,86-37,89-82c0,2,0,4,0,6c-1,4-2,8-3,13
								c-11,45-57,74-102,62c-29-8-52-32-57-62c-3-23,5-46,24-61c2-1,5-3,7-5s5-3,8-4s6-2,9-3c15-3,29-2,42,5c2,2,4,3,7,5
								c8,6,14,14,18,23c7,20,1,43-18,55c-13,8-30,8-42-3c-3-4-6-7-8-12c-3-8,0-17,3-24c3-5,8-9,14-7c5,2,10,6,8,12c-2,3-4,6-3,9
								c0,6,7,8,12,6c8-4,14-12,13-21c-2-14-15-22-28-24c-14-3-28,3-36,16c-3,6-5,12-6,18c-1,10,1,19,5,28c7,13,18,22,32,26
								c15,4,31,3,45-5c20-12,32-33,33-56c0-17-5-32-15-46c-8-11-18-18-30-23c-8-4-16-7-24-6c-15,1-31,2-45,10
								C606.4,52,589.4,78,585.4,107L585.4,107z"/>
						</g>
					</g>
				</g>
				<g>
					<g>
						<g>
							<path d="M674.4,200c-29-4-55-21-69-47c-3-7-6-13-8-20c-2-9-3-19-2-28c4-32,27-58,58-66c29-7,59,6,74,32c11,20,11,43-2,62
								c-11,14-27,22-44,22c-20-1-37-14-41-34c-3-16,6-33,22-37c9-2,19-2,26,5c3,4,4,9,4,13c-1,6-6,9-11,9c-4,0-7-5-12-4s-7,6-6,10
								c6,16,29,17,40,6c7-7,9-17,8-27c-1-15-12-28-26-33c-13-5-27-4-39,2c-9,5-16,13-22,22c-7,11-9,23-7,35c4,18,14,33,29,44
								c7,5,14,6,22,9c15,5,32,1,46-5c29-14,45-47,41-79c-5-40-39-72-79-76c14,2,27,6,40,12c11,6,19,15,27,26c18,25,19,57,5,84
								c-17,32-58,49-92,35c-16-7-28-20-35-36c-4-12-5-24-2-37c4-15,14-27,28-35c22-11,49-3,60,19c1,3,2,6,3,9c3,16-4,32-19,38
								c-8,3-18,1-24-5c-4-6-6-14-1-20c3-2,7-1,10,2c5,4,11,1,12-5c1-8-4-16-12-18c-5-1-9-1-14,0c-9,2-14,9-18,16c-9,19,3,42,21,50
								c3,1,6,2,9,3c12,2,24,1,34-6c2-2,4-3,7-5c10-8,15-19,18-31c3-15-1-29-8-42c-18-30-57-39-88-24c-32,16-48,53-40,88
								c9,38,42,64,79,67C675.4,200,675.4,200,674.4,200L674.4,200z"/>
						</g>
					</g>
				</g>
				<g>
					<g>
						<g>
							<path d="M610.4,47c24-24,62-33,94-18c15,7,29,18,37,33c10,18,14,39,8,59c-6,21-20,38-39,47c-16,7-35,7-51,0
								c-15-7-26-20-31-35c-6-19-2-41,14-55c2-2,5-3,7-5c12-7,25-8,37-3c13,6,23,19,23,34c-1,14-13,27-28,24c-6-2-13-6-14-13
								c0-6,7-7,12-7c2,0,5-3,5-6c-2-7-8-10-15-10c-11,1-20,10-21,21c-2,16,10,29,24,34c8,3,17,2,25,0c26-8,37-38,29-63
								c-4-12-12-21-23-28c-3-1-6-3-9-5c-13-6-28-7-42-3c-13,4-23,10-32,20c-19,22-21,53-10,79c8,19,25,33,44,40c32,13,70,4,94-20
								c-14,16-34,26-55,28c-31,3-62-10-79-37c-2-3-3-6-5-9c-7-12-8-26-7-40c1-15,8-28,17-40c2-2,5-4,7-7c21-19,51-23,76-9
								c20,13,31,36,25,60s-29,43-54,36c-9-2-15-8-20-15c-8-12-6-28,4-38c5-4,12-6,18-5c7,1,13,6,12,14s-11,6-15,11c-2,4,2,9,6,10
								c5,1,11,1,16-3c9-7,13-17,11-28c-3-11-9-20-19-24c-21-8-43,1-55,20c-7,12-8,26-5,40c4,14,13,23,25,31c28,18,63,10,84-15
								c16-19,20-44,14-68c-5-19-18-34-35-44c-3-1-6-3-9-5C673.4,16,635.4,22,610.4,47L610.4,47z"/>
						</g>
					</g>
				</g>
				<g>
					<g>
						<g>
							<path d="M616.4,174c-20-20-28-49-22-77c3-12,8-22,15-32c6-7,12-13,20-19c3-2,6-3,9-5c16-7,33-9,50-5c10,3,19,7,27,14
								c3,3,7,5,10,9c5,7,9,14,12,22c5,19,2,40-10,56c-10,12-23,20-38,22c-19,2-35-7-46-21c-10-14-11-33,0-47c12-16,36-19,49-3
								c7,9,5,21-4,28c-4,3-9,2-12-2c-4-4,1-6,2-9c0-4-4-6-8-5c-10,3-13,14-9,23s14,12,23,13c14,0,26-10,31-23c5-14,2-29-8-40
								c-9-10-21-15-34-16c-24-1-46,15-54,37c-6,18-5,36,4,53c14,25,42,38,70,34c21-3,39-14,52-32c6-9,10-18,13-28c2-9,3-19,2-28
								c-1-5,0-10-2-15s-4-9-5-14c-2-3-4-6-5-9c-4-8-11-13-16-20c35,29,40,84,9,119c-24,27-64,38-96,17c-25-16-37-46-29-74
								c6-18,19-32,37-39s39-1,53,12c10,10,14,24,12,37c-4,21-25,35-45,28c-5-1-10-5-13-10c-3-7-3-14,1-21c2-4,8-6,13-3c3,2,2,8,4,9
								c6,5,15,2,17-6c1-11-6-20-16-24c-8-3-17-2-25,3c-2,2-5,3-7,5c-12,14-15,34-4,50c13,18,36,24,57,17c16-5,29-18,35-33
								c5-15,5-31-1-46c-7-15-17-29-33-36c-14-6-29-9-44-6c-35,7-61,35-65,70c-4,33,11,65,38,84C625.4,184,620.4,180,616.4,174
								L616.4,174z"/>
						</g>
					</g>
				</g>
			</g>
			<g>
				<g>
					<path d="M678.4,114c-1,0-3,0-4,0c-3-2-6-4-4-9c2-4,8-7,12-2C685.4,107,683.4,112,678.4,114L678.4,114z"/>
				</g>
			</g>
		</g>
	</g>
</g>
</svg>
